<svg width="29" height="27" viewBox="0 0 29 27" fill="none" xmlns="http://www.w3.org/2000/svg">
<path opacity="0.9" d="M6.21387 0.5H22.7852C24.2974 0.500061 25.7501 1.11134 26.8223 2.20312C27.895 3.29548 28.5 4.77914 28.5 6.32715V16.873C28.5004 17.6397 28.3522 18.3995 28.0645 19.1074C27.7768 19.8151 27.3551 20.4573 26.8242 20.998C26.2932 21.5389 25.6634 21.9676 24.9707 22.2598C24.2782 22.5518 23.5361 22.7023 22.7871 22.7021H22.7861C20.0021 22.7022 17.3345 23.8212 15.3838 25.8076L14.8701 26.3311L14.8594 26.3418C14.8125 26.3923 14.7567 26.432 14.6953 26.459C14.6339 26.4859 14.5682 26.4999 14.502 26.5C14.4356 26.5 14.3691 26.486 14.3076 26.459C14.2463 26.432 14.1904 26.3923 14.1436 26.3418L14.1387 26.3369L14.1338 26.3311L13.6211 25.8096C11.669 23.8218 8.99986 22.7022 6.21387 22.7021C5.46471 22.7021 4.72192 22.552 4.0293 22.2598C3.33675 21.9676 2.70671 21.5388 2.17578 20.998C1.64483 20.4572 1.22329 19.8142 0.935547 19.1064C0.647845 18.3987 0.49981 17.6396 0.5 16.873V6.32715C0.500024 4.7788 1.10426 3.29525 2.17676 2.20312C3.24895 1.11145 4.70163 0.5 6.21387 0.5Z" stroke="black"/>
<path d="M6.21387 0.5H22.7852C24.2974 0.500061 25.7501 1.11134 26.8223 2.20312C27.895 3.29548 28.5 4.77914 28.5 6.32715V16.873C28.5004 17.6397 28.3522 18.3995 28.0645 19.1074C27.7768 19.8151 27.3551 20.4573 26.8242 20.998C26.2932 21.5389 25.6634 21.9676 24.9707 22.2598C24.2782 22.5518 23.5361 22.7023 22.7871 22.7021H22.7861C20.0021 22.7022 17.3345 23.8212 15.3838 25.8076L14.8701 26.3311L14.8594 26.3418C14.8125 26.3923 14.7567 26.432 14.6953 26.459C14.6339 26.4859 14.5682 26.4999 14.502 26.5C14.4356 26.5 14.3691 26.486 14.3076 26.459C14.2463 26.432 14.1904 26.3923 14.1436 26.3418L14.1387 26.3369L14.1338 26.3311L13.6211 25.8096C11.669 23.8218 8.99986 22.7022 6.21387 22.7021C5.46471 22.7021 4.72192 22.552 4.0293 22.2598C3.33675 21.9676 2.70671 21.5388 2.17578 20.998C1.64483 20.4572 1.22329 19.8142 0.935547 19.1064C0.647845 18.3987 0.49981 17.6396 0.5 16.873V6.32715C0.500024 4.7788 1.10426 3.29525 2.17676 2.20312C3.24895 1.11145 4.70163 0.5 6.21387 0.5Z" stroke="black"/>
<path d="M10.11 12H18.8957" stroke="black" stroke-linecap="round" stroke-linejoin="round"/>
<path d="M14.5028 8V15.7116" stroke="black" stroke-linecap="round" stroke-linejoin="round"/>
</svg>
