<svg width="25" height="25" viewBox="0 0 25 25" fill="none" xmlns="http://www.w3.org/2000/svg">
<path d="M17.25 1H3.5C2.83696 1 2.20107 1.26632 1.73223 1.74037C1.26339 2.21442 1 2.85737 1 3.52778V21.2222C1 21.8926 1.26339 22.5356 1.73223 23.0096C2.20107 23.4837 2.83696 23.75 3.5 23.75H21C21.663 23.75 22.2989 23.4837 22.7678 23.0096C23.2366 22.5356 23.5 21.8926 23.5 21.2222V7.31944L17.25 1Z" stroke="black" stroke-width="2" stroke-linecap="round" stroke-linejoin="round"/>
<path d="M16 1V6.05556C16 6.72596 16.2634 7.36891 16.7322 7.84296C17.2011 8.31701 17.837 8.58333 18.5 8.58333H23.5" stroke="black" stroke-width="2" stroke-linecap="round" stroke-linejoin="round"/>
</svg>
