<svg width="113" height="19" viewBox="0 0 113 19" fill="none" xmlns="http://www.w3.org/2000/svg">
<path d="M30.1989 15H28.7216L32.9943 3.36364H34.4489L38.7216 15H37.2443L33.767 5.20455H33.6761L30.1989 15ZM30.7443 10.4545H36.6989V11.7045H30.7443V10.4545ZM43.8977 15.1818C43.0795 15.1818 42.375 14.9886 41.7841 14.6023C41.1932 14.2159 40.7386 13.6837 40.4205 13.0057C40.1023 12.3277 39.9432 11.553 39.9432 10.6818C39.9432 9.79545 40.1061 9.01326 40.4318 8.33523C40.7614 7.65341 41.2197 7.12121 41.8068 6.73864C42.3977 6.35227 43.0871 6.15909 43.875 6.15909C44.4886 6.15909 45.0417 6.27273 45.5341 6.5C46.0265 6.72727 46.4299 7.04545 46.7443 7.45455C47.0587 7.86364 47.2538 8.34091 47.3295 8.88636H45.9886C45.8864 8.48864 45.6591 8.13636 45.3068 7.82955C44.9583 7.51894 44.4886 7.36364 43.8977 7.36364C43.375 7.36364 42.9167 7.5 42.5227 7.77273C42.1326 8.04167 41.8277 8.42235 41.608 8.91477C41.392 9.40341 41.2841 9.97727 41.2841 10.6364C41.2841 11.3106 41.3902 11.8977 41.6023 12.3977C41.8182 12.8977 42.1212 13.286 42.5114 13.5625C42.9053 13.839 43.3674 13.9773 43.8977 13.9773C44.2462 13.9773 44.5625 13.9167 44.8466 13.7955C45.1307 13.6742 45.3712 13.5 45.5682 13.2727C45.7652 13.0455 45.9053 12.7727 45.9886 12.4545H47.3295C47.2538 12.9697 47.0663 13.4337 46.767 13.8466C46.4716 14.2557 46.0795 14.5814 45.5909 14.8239C45.1061 15.0625 44.5417 15.1818 43.8977 15.1818ZM53.0852 6.27273V7.40909H48.5625V6.27273H53.0852ZM49.8807 4.18182H51.2216V12.5C51.2216 12.8788 51.2765 13.1629 51.3864 13.3523C51.5 13.5379 51.6439 13.6629 51.8182 13.7273C51.9962 13.7879 52.1837 13.8182 52.3807 13.8182C52.5284 13.8182 52.6496 13.8106 52.7443 13.7955C52.839 13.7765 52.9148 13.7614 52.9716 13.75L53.2443 14.9545C53.1534 14.9886 53.0265 15.0227 52.8636 15.0568C52.7008 15.0947 52.4943 15.1136 52.2443 15.1136C51.8655 15.1136 51.4943 15.0322 51.1307 14.8693C50.7708 14.7064 50.4716 14.4583 50.233 14.125C49.9981 13.7917 49.8807 13.3712 49.8807 12.8636V4.18182ZM55.1023 15V6.27273H56.4432V15H55.1023ZM55.7841 4.81818C55.5227 4.81818 55.2973 4.72917 55.108 4.55114C54.9223 4.37311 54.8295 4.15909 54.8295 3.90909C54.8295 3.65909 54.9223 3.44508 55.108 3.26705C55.2973 3.08902 55.5227 3 55.7841 3C56.0455 3 56.2689 3.08902 56.4545 3.26705C56.6439 3.44508 56.7386 3.65909 56.7386 3.90909C56.7386 4.15909 56.6439 4.37311 56.4545 4.55114C56.2689 4.72917 56.0455 4.81818 55.7841 4.81818ZM66.0355 6.27273L62.8082 15H61.4446L58.2173 6.27273H59.6719L62.081 13.2273H62.1719L64.581 6.27273H66.0355ZM67.8054 15V6.27273H69.1463V15H67.8054ZM68.4872 4.81818C68.2259 4.81818 68.0005 4.72917 67.8111 4.55114C67.6255 4.37311 67.5327 4.15909 67.5327 3.90909C67.5327 3.65909 67.6255 3.44508 67.8111 3.26705C68.0005 3.08902 68.2259 3 68.4872 3C68.7486 3 68.9721 3.08902 69.1577 3.26705C69.3471 3.44508 69.4418 3.65909 69.4418 3.90909C69.4418 4.15909 69.3471 4.37311 69.1577 4.55114C68.9721 4.72917 68.7486 4.81818 68.4872 4.81818ZM75.3977 6.27273V7.40909H70.875V6.27273H75.3977ZM72.1932 4.18182H73.5341V12.5C73.5341 12.8788 73.589 13.1629 73.6989 13.3523C73.8125 13.5379 73.9564 13.6629 74.1307 13.7273C74.3087 13.7879 74.4962 13.8182 74.6932 13.8182C74.8409 13.8182 74.9621 13.8106 75.0568 13.7955C75.1515 13.7765 75.2273 13.7614 75.2841 13.75L75.5568 14.9545C75.4659 14.9886 75.339 15.0227 75.1761 15.0568C75.0133 15.0947 74.8068 15.1136 74.5568 15.1136C74.178 15.1136 73.8068 15.0322 73.4432 14.8693C73.0833 14.7064 72.7841 14.4583 72.5455 14.125C72.3106 13.7917 72.1932 13.3712 72.1932 12.8636V4.18182ZM78.2784 18.2727C78.0511 18.2727 77.8485 18.2538 77.6705 18.2159C77.4924 18.1818 77.3693 18.1477 77.3011 18.1136L77.642 16.9318C77.9678 17.0152 78.2557 17.0455 78.5057 17.0227C78.7557 17 78.9773 16.8883 79.1705 16.6875C79.3674 16.4905 79.5473 16.1705 79.7102 15.7273L79.9602 15.0455L76.733 6.27273H78.1875L80.5966 13.2273H80.6875L83.0966 6.27273H84.5511L80.8466 16.2727C80.6799 16.7235 80.4735 17.0966 80.2273 17.392C79.9811 17.6913 79.6951 17.9129 79.3693 18.0568C79.0473 18.2008 78.6837 18.2727 78.2784 18.2727ZM92.1619 3.36364V15H90.821V3.36364H92.1619ZM98.1634 15.1818C97.3755 15.1818 96.6842 14.9943 96.0895 14.6193C95.4986 14.2443 95.0365 13.7197 94.7031 13.0455C94.3736 12.3712 94.2088 11.5833 94.2088 10.6818C94.2088 9.77273 94.3736 8.97917 94.7031 8.30114C95.0365 7.62311 95.4986 7.09659 96.0895 6.72159C96.6842 6.34659 97.3755 6.15909 98.1634 6.15909C98.9512 6.15909 99.6406 6.34659 100.232 6.72159C100.826 7.09659 101.288 7.62311 101.618 8.30114C101.951 8.97917 102.118 9.77273 102.118 10.6818C102.118 11.5833 101.951 12.3712 101.618 13.0455C101.288 13.7197 100.826 14.2443 100.232 14.6193C99.6406 14.9943 98.9512 15.1818 98.1634 15.1818ZM98.1634 13.9773C98.7618 13.9773 99.2543 13.8239 99.6406 13.517C100.027 13.2102 100.313 12.8068 100.499 12.3068C100.684 11.8068 100.777 11.2652 100.777 10.6818C100.777 10.0985 100.684 9.55492 100.499 9.05114C100.313 8.54735 100.027 8.14015 99.6406 7.82955C99.2543 7.51894 98.7618 7.36364 98.1634 7.36364C97.5649 7.36364 97.0724 7.51894 96.6861 7.82955C96.2997 8.14015 96.0137 8.54735 95.8281 9.05114C95.6425 9.55492 95.5497 10.0985 95.5497 10.6818C95.5497 11.2652 95.6425 11.8068 95.8281 12.3068C96.0137 12.8068 96.2997 13.2102 96.6861 13.517C97.0724 13.8239 97.5649 13.9773 98.1634 13.9773ZM107.688 18.4545C107.04 18.4545 106.483 18.3712 106.017 18.2045C105.551 18.0417 105.163 17.8258 104.852 17.5568C104.545 17.2917 104.301 17.0076 104.119 16.7045L105.188 15.9545C105.309 16.1136 105.462 16.2955 105.648 16.5C105.833 16.7083 106.087 16.8883 106.409 17.0398C106.735 17.1951 107.161 17.2727 107.688 17.2727C108.392 17.2727 108.973 17.1023 109.432 16.7614C109.89 16.4205 110.119 15.8864 110.119 15.1591V13.3864H110.006C109.907 13.5455 109.767 13.7424 109.585 13.9773C109.407 14.2083 109.15 14.4148 108.812 14.5966C108.479 14.7746 108.028 14.8636 107.46 14.8636C106.756 14.8636 106.123 14.697 105.562 14.3636C105.006 14.0303 104.564 13.5455 104.239 12.9091C103.917 12.2727 103.756 11.5 103.756 10.5909C103.756 9.69697 103.913 8.91856 104.227 8.25568C104.542 7.58901 104.979 7.07386 105.54 6.71023C106.1 6.3428 106.748 6.15909 107.483 6.15909C108.051 6.15909 108.502 6.25379 108.835 6.44318C109.172 6.62879 109.43 6.84091 109.608 7.07955C109.79 7.31439 109.93 7.50758 110.028 7.65909H110.165V6.27273H111.46V15.25C111.46 16 111.29 16.6098 110.949 17.0795C110.612 17.553 110.157 17.8996 109.585 18.1193C109.017 18.3428 108.384 18.4545 107.688 18.4545ZM107.642 13.6591C108.18 13.6591 108.634 13.536 109.006 13.2898C109.377 13.0436 109.659 12.6894 109.852 12.2273C110.045 11.7652 110.142 11.2121 110.142 10.5682C110.142 9.93939 110.047 9.38447 109.858 8.90341C109.669 8.42235 109.388 8.04545 109.017 7.77273C108.646 7.5 108.188 7.36364 107.642 7.36364C107.074 7.36364 106.6 7.50758 106.222 7.79545C105.847 8.08333 105.564 8.4697 105.375 8.95455C105.189 9.43939 105.097 9.97727 105.097 10.5682C105.097 11.1742 105.191 11.7102 105.381 12.1761C105.574 12.6383 105.858 13.0019 106.233 13.267C106.612 13.5284 107.081 13.6591 107.642 13.6591Z" fill="black"/>
<path fill-rule="evenodd" clip-rule="evenodd" d="M0 1.69231C0 1.5087 0.0702379 1.33261 0.195262 1.20277C0.320286 1.07294 0.489856 1 0.666667 1H3.33333C3.51014 1 3.67971 1.07294 3.80474 1.20277C3.92976 1.33261 4 1.5087 4 1.69231C4 1.87592 3.92976 2.05201 3.80474 2.18184C3.67971 2.31168 3.51014 2.38462 3.33333 2.38462H0.666667C0.489856 2.38462 0.320286 2.31168 0.195262 2.18184C0.0702379 2.05201 0 1.87592 0 1.69231ZM5.33333 1.69231C5.33333 1.5087 5.40357 1.33261 5.5286 1.20277C5.65362 1.07294 5.82319 1 6 1H19.3333C19.5101 1 19.6797 1.07294 19.8047 1.20277C19.9298 1.33261 20 1.5087 20 1.69231C20 1.87592 19.9298 2.05201 19.8047 2.18184C19.6797 2.31168 19.5101 2.38462 19.3333 2.38462H6C5.82319 2.38462 5.65362 2.31168 5.5286 2.18184C5.40357 2.05201 5.33333 1.87592 5.33333 1.69231ZM5.33333 5.84615C5.33333 5.66254 5.40357 5.48645 5.5286 5.35662C5.65362 5.22679 5.82319 5.15385 6 5.15385H15.3333C15.5101 5.15385 15.6797 5.22679 15.8047 5.35662C15.9298 5.48645 16 5.66254 16 5.84615C16 6.02977 15.9298 6.20586 15.8047 6.33569C15.6797 6.46552 15.5101 6.53846 15.3333 6.53846H6C5.82319 6.53846 5.65362 6.46552 5.5286 6.33569C5.40357 6.20586 5.33333 6.02977 5.33333 5.84615ZM0 10C0 9.81639 0.0702379 9.6403 0.195262 9.51046C0.320286 9.38063 0.489856 9.30769 0.666667 9.30769H3.33333C3.51014 9.30769 3.67971 9.38063 3.80474 9.51046C3.92976 9.6403 4 9.81639 4 10C4 10.1836 3.92976 10.3597 3.80474 10.4895C3.67971 10.6194 3.51014 10.6923 3.33333 10.6923H0.666667C0.489856 10.6923 0.320286 10.6194 0.195262 10.4895C0.0702379 10.3597 0 10.1836 0 10ZM5.33333 10C5.33333 9.81639 5.40357 9.6403 5.5286 9.51046C5.65362 9.38063 5.82319 9.30769 6 9.30769H19.3333C19.5101 9.30769 19.6797 9.38063 19.8047 9.51046C19.9298 9.6403 20 9.81639 20 10C20 10.1836 19.9298 10.3597 19.8047 10.4895C19.6797 10.6194 19.5101 10.6923 19.3333 10.6923H6C5.82319 10.6923 5.65362 10.6194 5.5286 10.4895C5.40357 10.3597 5.33333 10.1836 5.33333 10ZM5.33333 14.1538C5.33333 13.9702 5.40357 13.7941 5.5286 13.6643C5.65362 13.5345 5.82319 13.4615 6 13.4615H15.3333C15.5101 13.4615 15.6797 13.5345 15.8047 13.6643C15.9298 13.7941 16 13.9702 16 14.1538C16 14.3375 15.9298 14.5135 15.8047 14.6434C15.6797 14.7732 15.5101 14.8462 15.3333 14.8462H6C5.82319 14.8462 5.65362 14.7732 5.5286 14.6434C5.40357 14.5135 5.33333 14.3375 5.33333 14.1538ZM0 18.3077C0 18.1241 0.0702379 17.948 0.195262 17.8182C0.320286 17.6883 0.489856 17.6154 0.666667 17.6154H3.33333C3.51014 17.6154 3.67971 17.6883 3.80474 17.8182C3.92976 17.948 4 18.1241 4 18.3077C4 18.4913 3.92976 18.6674 3.80474 18.7972C3.67971 18.9271 3.51014 19 3.33333 19H0.666667C0.489856 19 0.320286 18.9271 0.195262 18.7972C0.0702379 18.6674 0 18.4913 0 18.3077ZM5.33333 18.3077C5.33333 18.1241 5.40357 17.948 5.5286 17.8182C5.65362 17.6883 5.82319 17.6154 6 17.6154H19.3333C19.5101 17.6154 19.6797 17.6883 19.8047 17.8182C19.9298 17.948 20 18.1241 20 18.3077C20 18.4913 19.9298 18.6674 19.8047 18.7972C19.6797 18.9271 19.5101 19 19.3333 19H6C5.82319 19 5.65362 18.9271 5.5286 18.7972C5.40357 18.6674 5.33333 18.4913 5.33333 18.3077Z" fill="black"/>
</svg>
