<svg width="24" height="24" viewBox="0 0 24 24" fill="none" xmlns="http://www.w3.org/2000/svg">
<path d="M16 6.8C16 5.0083 16 4.1134 15.414 3.5567C14.828 3 13.886 3 12 3C10.114 3 9.172 3 8.586 3.5567C8 4.1134 8 5.0083 8 6.8M2 14.4C2 10.8175 2 9.02585 3.172 7.9134C4.344 6.80095 6.229 6.8 10 6.8H14C17.771 6.8 19.657 6.8 20.828 7.9134C21.999 9.0268 22 10.8175 22 14.4C22 17.9824 22 19.7741 20.828 20.8866C19.656 21.999 17.771 22 14 22H10C6.229 22 4.343 22 3.172 20.8866C2.001 19.7732 2 17.9824 2 14.4Z" stroke="black" stroke-width="2"/>
<path d="M12 17.4164C13.105 17.4164 14 16.7636 14 15.9586C14 15.1536 13.105 14.5 12 14.5C10.895 14.5 10 13.8473 10 13.0414C10 12.2364 10.895 11.5836 12 11.5836M12 17.4164C10.895 17.4164 10 16.7636 10 15.9586M12 17.4164V18M12 11.5836V11M12 11.5836C13.105 11.5836 14 12.2364 14 13.0414" stroke="black" stroke-width="1.5" stroke-linecap="round"/>
</svg>
