<svg width="27" height="25" viewBox="0 0 27 25" fill="none" xmlns="http://www.w3.org/2000/svg">
<path d="M18.5 23.5V21C18.5 19.6739 17.9732 18.4021 17.0355 17.4645C16.0979 16.5268 14.8261 16 13.5 16H6C4.67392 16 3.40215 16.5268 2.46447 17.4645C1.52678 18.4021 1 19.6739 1 21V23.5" stroke="black" stroke-width="2" stroke-linecap="round" stroke-linejoin="round"/>
<path d="M18.5 1.16003C19.5722 1.438 20.5217 2.06411 21.1996 2.94011C21.8775 3.81611 22.2452 4.8924 22.2452 6.00003C22.2452 7.10767 21.8775 8.18396 21.1996 9.05996C20.5217 9.93595 19.5722 10.5621 18.5 10.84" stroke="black" stroke-width="2" stroke-linecap="round" stroke-linejoin="round"/>
<path d="M26 23.5V21C25.9992 19.8921 25.6304 18.8159 24.9517 17.9404C24.273 17.0648 23.3227 16.4394 22.25 16.1625" stroke="black" stroke-width="2" stroke-linecap="round" stroke-linejoin="round"/>
<path d="M9.75 11C12.5114 11 14.75 8.76142 14.75 6C14.75 3.23858 12.5114 1 9.75 1C6.98858 1 4.75 3.23858 4.75 6C4.75 8.76142 6.98858 11 9.75 11Z" stroke="black" stroke-width="2" stroke-linecap="round" stroke-linejoin="round"/>
</svg>
