<svg width="21" height="21" viewBox="0 0 21 21" fill="none" xmlns="http://www.w3.org/2000/svg">
<path d="M15 8.38694C15 8.87672 14.7893 9.34645 14.4142 9.69278C14.0391 10.0391 13.5304 10.2337 13 10.2337H5.828C5.29761 10.2338 4.78899 10.4284 4.414 10.7748L2.212 12.808C2.1127 12.8997 1.9862 12.9621 1.84849 12.9874C1.71077 13.0127 1.56803 12.9997 1.43831 12.9501C1.30858 12.9005 1.1977 12.8165 1.11969 12.7087C1.04167 12.6009 1.00002 12.4741 1 12.3445V2.84674C1 2.35695 1.21071 1.88723 1.58579 1.5409C1.96086 1.19457 2.46957 1 3 1H13C13.5304 1 14.0391 1.19457 14.4142 1.5409C14.7893 1.88723 15 2.35695 15 2.84674V8.38694Z" stroke="black" stroke-width="2" stroke-linecap="round" stroke-linejoin="round"/>
<path d="M18 7C18.5304 7 19.0391 7.21071 19.4142 7.58579C19.7893 7.96086 20 8.46957 20 9V19.286C20 19.4264 19.9583 19.5637 19.8803 19.6804C19.8023 19.7971 19.6914 19.8881 19.5617 19.9419C19.432 19.9956 19.2892 20.0097 19.1515 19.9823C19.0138 19.9549 18.8873 19.8873 18.788 19.788L16.586 17.586C16.211 17.2109 15.7024 17.0001 15.172 17H8C7.46957 17 6.96086 16.7893 6.58579 16.4142C6.21071 16.0391 6 15.5304 6 15V14" stroke="black" stroke-width="2" stroke-linecap="round" stroke-linejoin="round"/>
</svg>
