<svg width="22" height="21" viewBox="0 0 22 21" fill="none" xmlns="http://www.w3.org/2000/svg">
<path d="M21 12.696C21 13.4715 20.699 14.2152 20.1632 14.7636C19.6273 15.3119 18.9006 15.62 18.1429 15.62H7.89714C7.13944 15.6202 6.41284 15.9283 5.87714 16.4767L2.73143 19.696C2.58958 19.8412 2.40886 19.94 2.21213 19.9801C2.01539 20.0201 1.81147 19.9995 1.62615 19.921C1.44083 19.8424 1.28243 19.7094 1.17098 19.5387C1.05953 19.3681 1.00003 19.1674 1 18.9621V3.924C1 3.1485 1.30102 2.40477 1.83684 1.85642C2.37266 1.30806 3.09938 1 3.85714 1H18.1429C18.9006 1 19.6273 1.30806 20.1632 1.85642C20.699 2.40477 21 3.1485 21 3.924V12.696Z" stroke="black" stroke-width="2" stroke-linecap="round" stroke-linejoin="round"/>
</svg>
