<svg width="272" height="24" viewBox="0 0 272 24" fill="none" xmlns="http://www.w3.org/2000/svg">
<path d="M19 21L12 16.7778L5 21V4.11111C5 3.55121 5.21071 3.01424 5.58579 2.61833C5.96086 2.22242 6.46957 2 7 2H17C17.5304 2 18.0391 2.22242 18.4142 2.61833C18.7893 3.01424 19 3.55121 19 4.11111V21Z" stroke="black" stroke-width="2" stroke-linecap="round" stroke-linejoin="round"/>
<path d="M77 21V13C77 12.7348 76.8946 12.4804 76.7071 12.2929C76.5196 12.1054 76.2652 12 76 12H72C71.7348 12 71.4804 12.1054 71.2929 12.2929C71.1054 12.4804 71 12.7348 71 13V21" stroke="black" stroke-width="2" stroke-linecap="round" stroke-linejoin="round"/>
<path d="M65 9.99997C64.9999 9.70904 65.0633 9.42159 65.1858 9.15768C65.3082 8.89378 65.4868 8.65976 65.709 8.47197L72.709 2.47297C73.07 2.16788 73.5274 2.00049 74 2.00049C74.4726 2.00049 74.93 2.16788 75.291 2.47297L82.291 8.47197C82.5132 8.65976 82.6918 8.89378 82.8142 9.15768C82.9367 9.42159 83.0001 9.70904 83 9.99997V19C83 19.5304 82.7893 20.0391 82.4142 20.4142C82.0391 20.7893 81.5304 21 81 21H67C66.4696 21 65.9609 20.7893 65.5858 20.4142C65.2107 20.0391 65 19.5304 65 19V9.99997Z" stroke="black" stroke-width="2" stroke-linecap="round" stroke-linejoin="round"/>
<path d="M144 10.6001C144 15.3435 138.461 20.2836 136.601 21.8093C136.428 21.9331 136.217 22 136 22C135.783 22 135.572 21.9331 135.399 21.8093C133.539 20.2836 128 15.3435 128 10.6001C128 8.58442 128.843 6.65131 130.343 5.22602C131.843 3.80072 133.878 3 136 3C138.122 3 140.157 3.80072 141.657 5.22602C143.157 6.65131 144 8.58442 144 10.6001Z" stroke="black" stroke-width="2" stroke-linecap="round" stroke-linejoin="round"/>
<path d="M136 8V14" stroke="black" stroke-width="2" stroke-linecap="round" stroke-linejoin="round"/>
<path d="M133 11H139" stroke="black" stroke-width="2" stroke-linecap="round" stroke-linejoin="round"/>
<path d="M203 11C203 11.5304 202.789 12.0391 202.414 12.4142C202.039 12.7893 201.53 13 201 13H193.828C193.298 13.0001 192.789 13.2109 192.414 13.586L190.212 15.788C190.113 15.8873 189.986 15.9549 189.848 15.9823C189.711 16.0097 189.568 15.9956 189.438 15.9419C189.309 15.8881 189.198 15.7971 189.12 15.6804C189.042 15.5637 189 15.4264 189 15.286V5C189 4.46957 189.211 3.96086 189.586 3.58579C189.961 3.21071 190.47 3 191 3H201C201.53 3 202.039 3.21071 202.414 3.58579C202.789 3.96086 203 4.46957 203 5V11Z" stroke="black" stroke-width="2" stroke-linecap="round" stroke-linejoin="round"/>
<path d="M206 9C206.53 9 207.039 9.21071 207.414 9.58579C207.789 9.96086 208 10.4696 208 11V21.286C208 21.4264 207.958 21.5637 207.88 21.6804C207.802 21.7971 207.691 21.8881 207.562 21.9419C207.432 21.9956 207.289 22.0097 207.152 21.9823C207.014 21.9549 206.887 21.8873 206.788 21.788L204.586 19.586C204.211 19.2109 203.702 19.0001 203.172 19H196C195.47 19 194.961 18.7893 194.586 18.4142C194.211 18.0391 194 17.5304 194 17V16" stroke="black" stroke-width="2" stroke-linecap="round" stroke-linejoin="round"/>
<path d="M267 21V18.6667C267 17.429 266.579 16.242 265.828 15.3668C265.078 14.4917 264.061 14 263 14H257C255.939 14 254.922 14.4917 254.172 15.3668C253.421 16.242 253 17.429 253 18.6667V21" stroke="black" stroke-width="2" stroke-linecap="round" stroke-linejoin="round"/>
<path d="M260 10C262.209 10 264 8.20914 264 6C264 3.79086 262.209 2 260 2C257.791 2 256 3.79086 256 6C256 8.20914 257.791 10 260 10Z" stroke="black" stroke-width="2" stroke-linecap="round" stroke-linejoin="round"/>
</svg>
