<svg width="24" height="24" viewBox="0 0 24 24" fill="none" xmlns="http://www.w3.org/2000/svg">
<path d="M17 11C17 11.5304 16.7893 12.0391 16.4142 12.4142C16.0391 12.7893 15.5304 13 15 13H7.828C7.29761 13.0001 6.78899 13.2109 6.414 13.586L4.212 15.788C4.1127 15.8873 3.9862 15.9549 3.84849 15.9823C3.71077 16.0097 3.56803 15.9956 3.43831 15.9419C3.30858 15.8881 3.1977 15.7971 3.11969 15.6804C3.04167 15.5637 3.00002 15.4264 3 15.286V5C3 4.46957 3.21071 3.96086 3.58579 3.58579C3.96086 3.21071 4.46957 3 5 3H15C15.5304 3 16.0391 3.21071 16.4142 3.58579C16.7893 3.96086 17 4.46957 17 5V11Z" stroke="black" stroke-width="2" stroke-linecap="round" stroke-linejoin="round"/>
<path d="M18 7C18.5304 7 19.0391 7.21071 19.4142 7.58579C19.7893 7.96086 20 8.46957 20 9V19.286C20 19.4264 19.9583 19.5637 19.8803 19.6804C19.8023 19.7971 19.6914 19.8881 19.5617 19.9419C19.432 19.9956 19.2892 20.0097 19.1515 19.9823C19.0138 19.9549 18.8873 19.8873 18.788 19.788L16.586 17.586C16.211 17.2109 15.7024 17.0001 15.172 17H8C7.46957 17 6.96086 16.7893 6.58579 16.4142C6.21071 16.0391 6 15.5304 6 15V14" stroke="black" stroke-width="2" stroke-linecap="round" stroke-linejoin="round"/>
</svg>
