<svg width="24" height="24" viewBox="0 0 24 24" fill="none" xmlns="http://www.w3.org/2000/svg">
<path d="M17 11C17 11.5304 16.7893 12.0391 16.4142 12.4142C16.0391 12.7893 15.5304 13 15 13H7.828C7.29761 13.0001 6.78899 13.2109 6.414 13.586L4.212 15.788C4.1127 15.8873 3.9862 15.9549 3.84849 15.9823C3.71077 16.0097 3.56803 15.9956 3.43831 15.9419C3.30858 15.8881 3.1977 15.7971 3.11969 15.6804C3.04167 15.5637 3.00002 15.4264 3 15.286V5C3 4.46957 3.21071 3.96086 3.58579 3.58579C3.96086 3.21071 4.46957 3 5 3H15C15.5304 3 16.0391 3.21071 16.4142 3.58579C16.7893 3.96086 17 4.46957 17 5V11Z" stroke="black" stroke-width="2" stroke-linecap="round" stroke-linejoin="round"/>
<path d="M20 9C20.5304 9 21.0391 9.21071 21.4142 9.58579C21.7893 9.96086 22 10.4696 22 11V21.286C22 21.4264 21.9583 21.5637 21.8803 21.6804C21.8023 21.7971 21.6914 21.8881 21.5617 21.9419C21.432 21.9956 21.2892 22.0097 21.1515 21.9823C21.0138 21.9549 20.8873 21.8873 20.788 21.788L18.586 19.586C18.211 19.2109 17.7024 19.0001 17.172 19H10C9.46957 19 8.96086 18.7893 8.58579 18.4142C8.21071 18.0391 8 17.5304 8 17V16" stroke="black" stroke-width="2" stroke-linecap="round" stroke-linejoin="round"/>
</svg>
