<svg width="269" height="99" viewBox="0 0 269 99" fill="none" xmlns="http://www.w3.org/2000/svg">
<line x1="121.009" y1="26.5" x2="268.909" y2="26.5" stroke="black" stroke-opacity="0.6"/>
<line x1="121.009" y1="69.5" x2="268.909" y2="69.5" stroke="black" stroke-opacity="0.6"/>
<path d="M125.745 90.1818H126.585L128.563 95.0114H128.631L130.608 90.1818H131.449V96H130.79V91.5795H130.733L128.915 96H128.279L126.46 91.5795H126.404V96H125.745V90.1818ZM134.6 96.0909C134.18 96.0909 133.817 95.9981 133.512 95.8125C133.209 95.625 132.975 95.3636 132.811 95.0284C132.648 94.6913 132.566 94.2992 132.566 93.8523C132.566 93.4053 132.648 93.0114 132.811 92.6705C132.975 92.3277 133.205 92.0606 133.498 91.8693C133.794 91.6761 134.138 91.5795 134.532 91.5795C134.759 91.5795 134.984 91.6174 135.206 91.6932C135.427 91.7689 135.629 91.892 135.811 92.0625C135.992 92.2311 136.137 92.4545 136.245 92.733C136.353 93.0114 136.407 93.3542 136.407 93.7614V94.0455H133.044V93.4659H135.725C135.725 93.2197 135.676 93 135.578 92.8068C135.481 92.6136 135.343 92.4612 135.163 92.3494C134.985 92.2377 134.775 92.1818 134.532 92.1818C134.265 92.1818 134.034 92.2481 133.839 92.3807C133.646 92.5114 133.497 92.6818 133.393 92.892C133.289 93.1023 133.237 93.3277 133.237 93.5682V93.9545C133.237 94.2841 133.294 94.5634 133.407 94.7926C133.523 95.0199 133.683 95.1932 133.887 95.3125C134.092 95.4299 134.33 95.4886 134.6 95.4886C134.777 95.4886 134.936 95.464 135.078 95.4148C135.222 95.3636 135.346 95.2879 135.45 95.1875C135.554 95.0852 135.634 94.9583 135.691 94.8068L136.339 94.9886C136.271 95.2083 136.156 95.4015 135.995 95.5682C135.834 95.733 135.635 95.8617 135.399 95.9545C135.162 96.0455 134.896 96.0909 134.6 96.0909ZM137.427 96V91.6364H138.075V92.3182H138.132C138.223 92.0852 138.369 91.9044 138.572 91.7756C138.775 91.6449 139.018 91.5795 139.302 91.5795C139.59 91.5795 139.83 91.6449 140.021 91.7756C140.214 91.9044 140.365 92.0852 140.473 92.3182H140.518C140.63 92.0928 140.797 91.9138 141.021 91.7812C141.244 91.6468 141.512 91.5795 141.825 91.5795C142.215 91.5795 142.534 91.7017 142.782 91.946C143.03 92.1884 143.154 92.5663 143.154 93.0795V96H142.484V93.0795C142.484 92.7576 142.396 92.5275 142.22 92.3892C142.044 92.2509 141.836 92.1818 141.598 92.1818C141.291 92.1818 141.053 92.2746 140.884 92.4602C140.716 92.6439 140.632 92.8769 140.632 93.1591V96H139.95V93.0114C139.95 92.7633 139.869 92.5634 139.708 92.4119C139.547 92.2585 139.34 92.1818 139.086 92.1818C138.912 92.1818 138.749 92.2282 138.598 92.321C138.448 92.4138 138.327 92.5426 138.234 92.7074C138.143 92.8703 138.098 93.0587 138.098 93.2727V96H137.427ZM144.471 96V90.1818H145.142V92.3295H145.198C145.248 92.2538 145.316 92.1572 145.403 92.0398C145.492 91.9205 145.619 91.8144 145.784 91.7216C145.95 91.6269 146.176 91.5795 146.46 91.5795C146.827 91.5795 147.151 91.6714 147.431 91.8551C147.712 92.0388 147.93 92.2992 148.088 92.6364C148.245 92.9735 148.323 93.3712 148.323 93.8295C148.323 94.2917 148.245 94.6922 148.088 95.0312C147.93 95.3684 147.713 95.6297 147.434 95.8153C147.156 95.9991 146.835 96.0909 146.471 96.0909C146.191 96.0909 145.966 96.0445 145.798 95.9517C145.629 95.857 145.5 95.75 145.409 95.6307C145.318 95.5095 145.248 95.4091 145.198 95.3295H145.119V96H144.471ZM145.13 93.8182C145.13 94.1477 145.179 94.4384 145.275 94.6903C145.372 94.9403 145.513 95.1364 145.698 95.2784C145.884 95.4186 146.111 95.4886 146.38 95.4886C146.661 95.4886 146.894 95.4148 147.082 95.267C147.271 95.1174 147.413 94.9167 147.508 94.6648C147.605 94.411 147.653 94.1288 147.653 93.8182C147.653 93.5114 147.606 93.2348 147.511 92.9886C147.418 92.7405 147.277 92.5445 147.088 92.4006C146.9 92.2547 146.664 92.1818 146.38 92.1818C146.108 92.1818 145.878 92.2509 145.693 92.3892C145.507 92.5256 145.367 92.7169 145.272 92.9631C145.178 93.2074 145.13 93.4924 145.13 93.8182ZM151.179 96.0909C150.758 96.0909 150.395 95.9981 150.09 95.8125C149.787 95.625 149.554 95.3636 149.389 95.0284C149.226 94.6913 149.144 94.2992 149.144 93.8523C149.144 93.4053 149.226 93.0114 149.389 92.6705C149.554 92.3277 149.783 92.0606 150.076 91.8693C150.372 91.6761 150.716 91.5795 151.11 91.5795C151.338 91.5795 151.562 91.6174 151.784 91.6932C152.005 91.7689 152.207 91.892 152.389 92.0625C152.571 92.2311 152.715 92.4545 152.823 92.733C152.931 93.0114 152.985 93.3542 152.985 93.7614V94.0455H149.622V93.4659H152.304C152.304 93.2197 152.254 93 152.156 92.8068C152.059 92.6136 151.921 92.4612 151.741 92.3494C151.563 92.2377 151.353 92.1818 151.11 92.1818C150.843 92.1818 150.612 92.2481 150.417 92.3807C150.224 92.5114 150.075 92.6818 149.971 92.892C149.867 93.1023 149.815 93.3277 149.815 93.5682V93.9545C149.815 94.2841 149.872 94.5634 149.985 94.7926C150.101 95.0199 150.261 95.1932 150.465 95.3125C150.67 95.4299 150.908 95.4886 151.179 95.4886C151.355 95.4886 151.514 95.464 151.656 95.4148C151.8 95.3636 151.924 95.2879 152.028 95.1875C152.132 95.0852 152.213 94.9583 152.269 94.8068L152.917 94.9886C152.849 95.2083 152.734 95.4015 152.573 95.5682C152.412 95.733 152.214 95.8617 151.977 95.9545C151.74 96.0455 151.474 96.0909 151.179 96.0909ZM154.005 96V91.6364H154.653V92.2955H154.698C154.778 92.0795 154.922 91.9044 155.13 91.7699C155.339 91.6354 155.573 91.5682 155.835 91.5682C155.884 91.5682 155.946 91.5691 156.019 91.571C156.093 91.5729 156.149 91.5758 156.187 91.5795V92.2614C156.164 92.2557 156.112 92.2472 156.031 92.2358C155.951 92.2225 155.867 92.2159 155.778 92.2159C155.566 92.2159 155.376 92.2604 155.21 92.3494C155.045 92.4366 154.914 92.5578 154.818 92.7131C154.723 92.8665 154.676 93.0417 154.676 93.2386V96H154.005ZM162.323 92.6136L161.72 92.7841C161.683 92.6837 161.627 92.5862 161.553 92.4915C161.481 92.3949 161.382 92.3153 161.257 92.2528C161.132 92.1903 160.972 92.1591 160.777 92.1591C160.51 92.1591 160.288 92.2206 160.11 92.3438C159.934 92.465 159.845 92.6193 159.845 92.8068C159.845 92.9735 159.906 93.1051 160.027 93.2017C160.148 93.2983 160.338 93.3788 160.595 93.4432L161.243 93.6023C161.633 93.697 161.924 93.8419 162.115 94.0369C162.307 94.2301 162.402 94.4792 162.402 94.7841C162.402 95.0341 162.33 95.2576 162.186 95.4545C162.044 95.6515 161.845 95.8068 161.59 95.9205C161.334 96.0341 161.037 96.0909 160.698 96.0909C160.253 96.0909 159.884 95.9943 159.593 95.8011C159.301 95.608 159.116 95.3258 159.039 94.9545L159.675 94.7955C159.736 95.0303 159.85 95.2064 160.019 95.3239C160.189 95.4413 160.412 95.5 160.686 95.5C160.999 95.5 161.247 95.4337 161.431 95.3011C161.616 95.1667 161.709 95.0057 161.709 94.8182C161.709 94.6667 161.656 94.5398 161.55 94.4375C161.444 94.3333 161.281 94.2557 161.061 94.2045L160.334 94.0341C159.934 93.9394 159.641 93.7926 159.453 93.5938C159.268 93.393 159.175 93.142 159.175 92.8409C159.175 92.5947 159.244 92.3769 159.382 92.1875C159.523 91.9981 159.713 91.8494 159.953 91.7415C160.196 91.6335 160.47 91.5795 160.777 91.5795C161.209 91.5795 161.548 91.6742 161.794 91.8636C162.042 92.053 162.219 92.303 162.323 92.6136ZM163.411 96V91.6364H164.082V96H163.411ZM163.752 90.9091C163.622 90.9091 163.509 90.8646 163.414 90.7756C163.322 90.6866 163.275 90.5795 163.275 90.4545C163.275 90.3295 163.322 90.2225 163.414 90.1335C163.509 90.0445 163.622 90 163.752 90C163.883 90 163.995 90.0445 164.088 90.1335C164.182 90.2225 164.23 90.3295 164.23 90.4545C164.23 90.5795 164.182 90.6866 164.088 90.7756C163.995 90.8646 163.883 90.9091 163.752 90.9091ZM165.98 93.375V96H165.31V91.6364H165.958V92.3182H166.014C166.117 92.0966 166.272 91.9186 166.48 91.7841C166.689 91.6477 166.958 91.5795 167.287 91.5795C167.583 91.5795 167.841 91.6402 168.063 91.7614C168.284 91.8807 168.457 92.0625 168.58 92.3068C168.703 92.5492 168.764 92.8561 168.764 93.2273V96H168.094V93.2727C168.094 92.9299 168.005 92.6629 167.827 92.4716C167.649 92.2784 167.405 92.1818 167.094 92.1818C166.88 92.1818 166.689 92.2282 166.52 92.321C166.353 92.4138 166.222 92.5492 166.125 92.7273C166.029 92.9053 165.98 93.1212 165.98 93.375ZM171.762 96.0909C171.353 96.0909 171.001 95.9943 170.706 95.8011C170.41 95.608 170.183 95.3419 170.024 95.0028C169.865 94.6638 169.785 94.2765 169.785 93.8409C169.785 93.3977 169.867 93.0066 170.029 92.6676C170.194 92.3267 170.423 92.0606 170.717 91.8693C171.012 91.6761 171.357 91.5795 171.751 91.5795C172.058 91.5795 172.334 91.6364 172.581 91.75C172.827 91.8636 173.028 92.0227 173.186 92.2273C173.343 92.4318 173.44 92.6705 173.478 92.9432H172.808C172.757 92.7443 172.643 92.5682 172.467 92.4148C172.293 92.2595 172.058 92.1818 171.762 92.1818C171.501 92.1818 171.272 92.25 171.075 92.3864C170.88 92.5208 170.727 92.7112 170.617 92.9574C170.509 93.2017 170.456 93.4886 170.456 93.8182C170.456 94.1553 170.509 94.4489 170.615 94.6989C170.723 94.9489 170.874 95.143 171.069 95.2812C171.266 95.4195 171.497 95.4886 171.762 95.4886C171.937 95.4886 172.095 95.4583 172.237 95.3977C172.379 95.3371 172.499 95.25 172.598 95.1364C172.696 95.0227 172.766 94.8864 172.808 94.7273H173.478C173.44 94.9848 173.347 95.2169 173.197 95.4233C173.049 95.6278 172.853 95.7907 172.609 95.9119C172.367 96.0312 172.084 96.0909 171.762 96.0909ZM176.288 96.0909C175.867 96.0909 175.505 95.9981 175.2 95.8125C174.897 95.625 174.663 95.3636 174.498 95.0284C174.335 94.6913 174.254 94.2992 174.254 93.8523C174.254 93.4053 174.335 93.0114 174.498 92.6705C174.663 92.3277 174.892 92.0606 175.186 91.8693C175.481 91.6761 175.826 91.5795 176.22 91.5795C176.447 91.5795 176.671 91.6174 176.893 91.6932C177.115 91.7689 177.316 91.892 177.498 92.0625C177.68 92.2311 177.825 92.4545 177.933 92.733C178.041 93.0114 178.095 93.3542 178.095 93.7614V94.0455H174.731V93.4659H177.413C177.413 93.2197 177.364 93 177.265 92.8068C177.169 92.6136 177.03 92.4612 176.85 92.3494C176.672 92.2377 176.462 92.1818 176.22 92.1818C175.953 92.1818 175.722 92.2481 175.527 92.3807C175.333 92.5114 175.185 92.6818 175.081 92.892C174.976 93.1023 174.924 93.3277 174.924 93.5682V93.9545C174.924 94.2841 174.981 94.5634 175.095 94.7926C175.21 95.0199 175.37 95.1932 175.575 95.3125C175.779 95.4299 176.017 95.4886 176.288 95.4886C176.464 95.4886 176.623 95.464 176.765 95.4148C176.909 95.3636 177.033 95.2879 177.137 95.1875C177.242 95.0852 177.322 94.9583 177.379 94.8068L178.027 94.9886C177.958 95.2083 177.844 95.4015 177.683 95.5682C177.522 95.733 177.323 95.8617 177.086 95.9545C176.849 96.0455 176.583 96.0909 176.288 96.0909ZM179.603 96.0455C179.463 96.0455 179.343 95.9953 179.242 95.8949C179.142 95.7945 179.092 95.6742 179.092 95.5341C179.092 95.3939 179.142 95.2737 179.242 95.1733C179.343 95.0729 179.463 95.0227 179.603 95.0227C179.743 95.0227 179.864 95.0729 179.964 95.1733C180.064 95.2737 180.115 95.3939 180.115 95.5341C180.115 95.6269 180.091 95.7121 180.044 95.7898C179.998 95.8674 179.937 95.9299 179.859 95.9773C179.783 96.0227 179.698 96.0455 179.603 96.0455ZM179.603 92.8068C179.463 92.8068 179.343 92.7566 179.242 92.6562C179.142 92.5559 179.092 92.4356 179.092 92.2955C179.092 92.1553 179.142 92.035 179.242 91.9347C179.343 91.8343 179.463 91.7841 179.603 91.7841C179.743 91.7841 179.864 91.8343 179.964 91.9347C180.064 92.035 180.115 92.1553 180.115 92.2955C180.115 92.3883 180.091 92.4735 180.044 92.5511C179.998 92.6288 179.937 92.6913 179.859 92.7386C179.783 92.7841 179.698 92.8068 179.603 92.8068ZM183.897 96H183.159L185.295 90.1818H186.022L188.159 96H187.42L185.681 91.1023H185.636L183.897 96ZM184.17 93.7273H187.147V94.3523H184.17V93.7273ZM188.974 97.6364V91.6364H189.622V92.3295H189.701C189.751 92.2538 189.819 92.1572 189.906 92.0398C189.995 91.9205 190.122 91.8144 190.286 91.7216C190.453 91.6269 190.679 91.5795 190.963 91.5795C191.33 91.5795 191.654 91.6714 191.934 91.8551C192.215 92.0388 192.433 92.2992 192.59 92.6364C192.748 92.9735 192.826 93.3712 192.826 93.8295C192.826 94.2917 192.748 94.6922 192.59 95.0312C192.433 95.3684 192.215 95.6297 191.937 95.8153C191.659 95.9991 191.338 96.0909 190.974 96.0909C190.694 96.0909 190.469 96.0445 190.301 95.9517C190.132 95.857 190.002 95.75 189.911 95.6307C189.821 95.5095 189.751 95.4091 189.701 95.3295H189.644V97.6364H188.974ZM189.633 93.8182C189.633 94.1477 189.681 94.4384 189.778 94.6903C189.875 94.9403 190.016 95.1364 190.201 95.2784C190.387 95.4186 190.614 95.4886 190.883 95.4886C191.163 95.4886 191.397 95.4148 191.585 95.267C191.774 95.1174 191.916 94.9167 192.011 94.6648C192.108 94.411 192.156 94.1288 192.156 93.8182C192.156 93.5114 192.108 93.2348 192.014 92.9886C191.921 92.7405 191.78 92.5445 191.59 92.4006C191.403 92.2547 191.167 92.1818 190.883 92.1818C190.61 92.1818 190.381 92.2509 190.196 92.3892C190.01 92.5256 189.87 92.7169 189.775 92.9631C189.68 93.2074 189.633 93.4924 189.633 93.8182ZM193.849 96V91.6364H194.497V92.2955H194.542C194.622 92.0795 194.766 91.9044 194.974 91.7699C195.182 91.6354 195.417 91.5682 195.679 91.5682C195.728 91.5682 195.789 91.5691 195.863 91.571C195.937 91.5729 195.993 91.5758 196.031 91.5795V92.2614C196.008 92.2557 195.956 92.2472 195.875 92.2358C195.795 92.2225 195.711 92.2159 195.622 92.2159C195.41 92.2159 195.22 92.2604 195.054 92.3494C194.889 92.4366 194.758 92.5578 194.661 92.7131C194.567 92.8665 194.519 93.0417 194.519 93.2386V96H193.849ZM196.826 96V91.6364H197.496V96H196.826ZM197.166 90.9091C197.036 90.9091 196.923 90.8646 196.828 90.7756C196.736 90.6866 196.689 90.5795 196.689 90.4545C196.689 90.3295 196.736 90.2225 196.828 90.1335C196.923 90.0445 197.036 90 197.166 90C197.297 90 197.409 90.0445 197.502 90.1335C197.596 90.2225 197.644 90.3295 197.644 90.4545C197.644 90.5795 197.596 90.6866 197.502 90.7756C197.409 90.8646 197.297 90.9091 197.166 90.9091ZM199.394 90.1818V96H198.724V90.1818H199.394ZM202.861 96V95.4886L204.782 93.3864C205.007 93.1402 205.193 92.9261 205.338 92.7443C205.484 92.5606 205.592 92.3883 205.662 92.2273C205.734 92.0644 205.77 91.8939 205.77 91.7159C205.77 91.5114 205.721 91.3343 205.622 91.1847C205.526 91.035 205.393 90.9195 205.225 90.8381C205.056 90.7566 204.867 90.7159 204.657 90.7159C204.433 90.7159 204.238 90.7623 204.071 90.8551C203.907 90.946 203.779 91.0739 203.688 91.2386C203.599 91.4034 203.554 91.5966 203.554 91.8182H202.884C202.884 91.4773 202.962 91.178 203.12 90.9205C203.277 90.6629 203.491 90.4621 203.762 90.3182C204.034 90.1742 204.34 90.1023 204.679 90.1023C205.02 90.1023 205.322 90.1742 205.585 90.3182C205.849 90.4621 206.055 90.6562 206.205 90.9006C206.354 91.1449 206.429 91.4167 206.429 91.7159C206.429 91.9299 206.39 92.1392 206.313 92.3438C206.237 92.5464 206.104 92.7727 205.915 93.0227C205.728 93.2708 205.467 93.5739 205.134 93.9318L203.827 95.3295V95.375H206.532V96H202.861ZM209.568 96.0795C209.178 96.0795 208.834 96.0104 208.534 95.8722C208.237 95.732 208.005 95.5398 207.838 95.2955C207.672 95.0492 207.589 94.7689 207.591 94.4545C207.589 94.2083 207.638 93.9811 207.736 93.7727C207.835 93.5625 207.969 93.3873 208.139 93.2472C208.312 93.1051 208.504 93.0152 208.716 92.9773V92.9432C208.438 92.8712 208.216 92.715 208.051 92.4744C207.887 92.232 207.805 91.9564 207.807 91.6477C207.805 91.3523 207.88 91.0881 208.032 90.8551C208.183 90.6222 208.391 90.4384 208.657 90.304C208.924 90.1695 209.228 90.1023 209.568 90.1023C209.906 90.1023 210.207 90.1695 210.472 90.304C210.737 90.4384 210.945 90.6222 211.097 90.8551C211.25 91.0881 211.328 91.3523 211.33 91.6477C211.328 91.9564 211.244 92.232 211.077 92.4744C210.912 92.715 210.693 92.8712 210.421 92.9432V92.9773C210.631 93.0152 210.82 93.1051 210.989 93.2472C211.157 93.3873 211.292 93.5625 211.392 93.7727C211.493 93.9811 211.544 94.2083 211.546 94.4545C211.544 94.7689 211.459 95.0492 211.29 95.2955C211.123 95.5398 210.891 95.732 210.594 95.8722C210.299 96.0104 209.957 96.0795 209.568 96.0795ZM209.568 95.4545C209.832 95.4545 210.059 95.4119 210.25 95.3267C210.442 95.2415 210.589 95.1212 210.693 94.9659C210.798 94.8106 210.851 94.6288 210.853 94.4205C210.851 94.2008 210.794 94.0066 210.682 93.8381C210.57 93.6695 210.418 93.5369 210.225 93.4403C210.033 93.3437 209.815 93.2955 209.568 93.2955C209.32 93.2955 209.099 93.3437 208.904 93.4403C208.71 93.5369 208.558 93.6695 208.446 93.8381C208.336 94.0066 208.282 94.2008 208.284 94.4205C208.282 94.6288 208.333 94.8106 208.435 94.9659C208.539 95.1212 208.688 95.2415 208.881 95.3267C209.074 95.4119 209.303 95.4545 209.568 95.4545ZM209.568 92.6932C209.777 92.6932 209.961 92.6515 210.122 92.5682C210.285 92.4848 210.413 92.3684 210.506 92.2188C210.599 92.0691 210.646 91.8939 210.648 91.6932C210.646 91.4962 210.6 91.3248 210.509 91.179C210.418 91.0312 210.292 90.9176 210.131 90.8381C209.97 90.7566 209.782 90.7159 209.568 90.7159C209.351 90.7159 209.16 90.7566 208.997 90.8381C208.835 90.9176 208.709 91.0312 208.62 91.179C208.531 91.3248 208.487 91.4962 208.489 91.6932C208.487 91.8939 208.532 92.0691 208.622 92.2188C208.715 92.3684 208.843 92.4848 209.006 92.5682C209.169 92.6515 209.356 92.6932 209.568 92.6932ZM213.466 95.2045L213.421 95.5114C213.389 95.7273 213.339 95.9583 213.273 96.2045C213.209 96.4508 213.141 96.6828 213.071 96.9006C213.001 97.1184 212.943 97.2917 212.898 97.4205H212.387C212.411 97.2992 212.443 97.1392 212.483 96.9403C212.523 96.7415 212.563 96.5189 212.603 96.2727C212.644 96.0284 212.678 95.7784 212.705 95.5227L212.739 95.2045H213.466ZM216.947 96V95.4886L218.867 93.3864C219.093 93.1402 219.278 92.9261 219.424 92.7443C219.57 92.5606 219.678 92.3883 219.748 92.2273C219.82 92.0644 219.856 91.8939 219.856 91.7159C219.856 91.5114 219.807 91.3343 219.708 91.1847C219.612 91.035 219.479 90.9195 219.311 90.8381C219.142 90.7566 218.953 90.7159 218.742 90.7159C218.519 90.7159 218.324 90.7623 218.157 90.8551C217.992 90.946 217.865 91.0739 217.774 91.2386C217.685 91.4034 217.64 91.5966 217.64 91.8182H216.97C216.97 91.4773 217.048 91.178 217.206 90.9205C217.363 90.6629 217.577 90.4621 217.848 90.3182C218.12 90.1742 218.426 90.1023 218.765 90.1023C219.106 90.1023 219.408 90.1742 219.671 90.3182C219.935 90.4621 220.141 90.6562 220.291 90.9006C220.44 91.1449 220.515 91.4167 220.515 91.7159C220.515 91.9299 220.476 92.1392 220.399 92.3438C220.323 92.5464 220.19 92.7727 220.001 93.0227C219.813 93.2708 219.553 93.5739 219.22 93.9318L217.913 95.3295V95.375H220.617V96H216.947ZM223.688 96.0795C223.26 96.0795 222.896 95.9631 222.595 95.7301C222.294 95.4953 222.063 95.1553 221.904 94.7102C221.745 94.2633 221.666 93.7235 221.666 93.0909C221.666 92.4621 221.745 91.9252 221.904 91.4801C222.065 91.0331 222.296 90.6922 222.598 90.4574C222.901 90.2206 223.264 90.1023 223.688 90.1023C224.113 90.1023 224.475 90.2206 224.777 90.4574C225.08 90.6922 225.311 91.0331 225.47 91.4801C225.631 91.9252 225.711 92.4621 225.711 93.0909C225.711 93.7235 225.632 94.2633 225.473 94.7102C225.313 95.1553 225.083 95.4953 224.782 95.7301C224.481 95.9631 224.117 96.0795 223.688 96.0795ZM223.688 95.4545C224.113 95.4545 224.442 95.25 224.677 94.8409C224.912 94.4318 225.029 93.8485 225.029 93.0909C225.029 92.5871 224.975 92.1581 224.867 91.804C224.761 91.4498 224.608 91.1799 224.407 90.9943C224.208 90.8087 223.969 90.7159 223.688 90.7159C223.268 90.7159 222.939 90.9233 222.703 91.3381C222.466 91.7509 222.348 92.3352 222.348 93.0909C222.348 93.5947 222.401 94.0227 222.507 94.375C222.613 94.7273 222.765 94.9953 222.964 95.179C223.165 95.3627 223.406 95.4545 223.688 95.4545ZM226.791 96V95.4886L228.711 93.3864C228.937 93.1402 229.122 92.9261 229.268 92.7443C229.414 92.5606 229.522 92.3883 229.592 92.2273C229.664 92.0644 229.7 91.8939 229.7 91.7159C229.7 91.5114 229.651 91.3343 229.552 91.1847C229.456 91.035 229.323 90.9195 229.154 90.8381C228.986 90.7566 228.796 90.7159 228.586 90.7159C228.363 90.7159 228.168 90.7623 228.001 90.8551C227.836 90.946 227.708 91.0739 227.617 91.2386C227.528 91.4034 227.484 91.5966 227.484 91.8182H226.813C226.813 91.4773 226.892 91.178 227.049 90.9205C227.206 90.6629 227.42 90.4621 227.691 90.3182C227.964 90.1742 228.27 90.1023 228.609 90.1023C228.95 90.1023 229.252 90.1742 229.515 90.3182C229.778 90.4621 229.985 90.6562 230.134 90.9006C230.284 91.1449 230.359 91.4167 230.359 91.7159C230.359 91.9299 230.32 92.1392 230.242 92.3438C230.167 92.5464 230.034 92.7727 229.845 93.0227C229.657 93.2708 229.397 93.5739 229.063 93.9318L227.757 95.3295V95.375H230.461V96H226.791ZM233.453 96.0795C233.119 96.0795 232.819 96.0133 232.552 95.8807C232.285 95.7481 232.071 95.5663 231.91 95.3352C231.749 95.1042 231.661 94.8409 231.646 94.5455H232.328C232.354 94.8087 232.474 95.0265 232.686 95.1989C232.9 95.3693 233.155 95.4545 233.453 95.4545C233.691 95.4545 233.903 95.3987 234.089 95.2869C234.277 95.1752 234.423 95.0218 234.529 94.8267C234.637 94.6297 234.691 94.4072 234.691 94.1591C234.691 93.9053 234.635 93.679 234.524 93.4801C234.414 93.2794 234.262 93.1212 234.069 93.0057C233.876 92.8902 233.655 92.8314 233.407 92.8295C233.229 92.8277 233.046 92.8551 232.859 92.9119C232.671 92.9669 232.517 93.0379 232.396 93.125L231.737 93.0455L232.089 90.1818H235.112V90.8068H232.68L232.475 92.5227H232.509C232.629 92.428 232.778 92.3494 232.958 92.2869C233.138 92.2244 233.326 92.1932 233.521 92.1932C233.877 92.1932 234.194 92.2784 234.473 92.4489C234.753 92.6174 234.973 92.8485 235.132 93.142C235.293 93.4356 235.373 93.7708 235.373 94.1477C235.373 94.5189 235.29 94.8504 235.123 95.142C234.958 95.4318 234.731 95.661 234.441 95.8295C234.152 95.9962 233.822 96.0795 233.453 96.0795Z" fill="black"/>
<path d="M125.557 51V45.1818H126.262V50.375H128.966V51H125.557ZM131.739 51.0909C131.345 51.0909 130.999 50.9972 130.702 50.8097C130.407 50.6222 130.175 50.3598 130.009 50.0227C129.844 49.6856 129.762 49.2917 129.762 48.8409C129.762 48.3864 129.844 47.9896 130.009 47.6506C130.175 47.3116 130.407 47.0483 130.702 46.8608C130.999 46.6733 131.345 46.5795 131.739 46.5795C132.133 46.5795 132.478 46.6733 132.773 46.8608C133.07 47.0483 133.301 47.3116 133.466 47.6506C133.633 47.9896 133.716 48.3864 133.716 48.8409C133.716 49.2917 133.633 49.6856 133.466 50.0227C133.301 50.3598 133.07 50.6222 132.773 50.8097C132.478 50.9972 132.133 51.0909 131.739 51.0909ZM131.739 50.4886C132.038 50.4886 132.284 50.4119 132.478 50.2585C132.671 50.1051 132.814 49.9034 132.907 49.6534C132.999 49.4034 133.046 49.1326 133.046 48.8409C133.046 48.5492 132.999 48.2775 132.907 48.0256C132.814 47.7737 132.671 47.5701 132.478 47.4148C132.284 47.2595 132.038 47.1818 131.739 47.1818C131.44 47.1818 131.193 47.2595 131 47.4148C130.807 47.5701 130.664 47.7737 130.571 48.0256C130.478 48.2775 130.432 48.5492 130.432 48.8409C130.432 49.1326 130.478 49.4034 130.571 49.6534C130.664 49.9034 130.807 50.1051 131 50.2585C131.193 50.4119 131.44 50.4886 131.739 50.4886ZM136.512 51.0909C136.103 51.0909 135.751 50.9943 135.456 50.8011C135.16 50.608 134.933 50.3419 134.774 50.0028C134.615 49.6638 134.535 49.2765 134.535 48.8409C134.535 48.3977 134.617 48.0066 134.779 47.6676C134.944 47.3267 135.173 47.0606 135.467 46.8693C135.762 46.6761 136.107 46.5795 136.501 46.5795C136.808 46.5795 137.084 46.6364 137.331 46.75C137.577 46.8636 137.778 47.0227 137.936 47.2273C138.093 47.4318 138.19 47.6705 138.228 47.9432H137.558C137.507 47.7443 137.393 47.5682 137.217 47.4148C137.043 47.2595 136.808 47.1818 136.512 47.1818C136.251 47.1818 136.022 47.25 135.825 47.3864C135.63 47.5208 135.477 47.7112 135.367 47.9574C135.259 48.2017 135.206 48.4886 135.206 48.8182C135.206 49.1553 135.259 49.4489 135.365 49.6989C135.473 49.9489 135.624 50.143 135.819 50.2812C136.016 50.4195 136.247 50.4886 136.512 50.4886C136.687 50.4886 136.845 50.4583 136.987 50.3977C137.129 50.3371 137.249 50.25 137.348 50.1364C137.446 50.0227 137.516 49.8864 137.558 49.7273H138.228C138.19 49.9848 138.097 50.2169 137.947 50.4233C137.799 50.6278 137.603 50.7907 137.359 50.9119C137.117 51.0312 136.834 51.0909 136.512 51.0909ZM140.492 51.1023C140.216 51.1023 139.965 51.0502 139.74 50.946C139.514 50.84 139.335 50.6875 139.203 50.4886C139.07 50.2879 139.004 50.0455 139.004 49.7614C139.004 49.5114 139.053 49.3087 139.152 49.1534C139.25 48.9962 139.382 48.8731 139.546 48.7841C139.711 48.6951 139.893 48.6288 140.092 48.5852C140.293 48.5398 140.494 48.5038 140.697 48.4773C140.962 48.4432 141.177 48.4176 141.342 48.4006C141.509 48.3816 141.63 48.3504 141.706 48.3068C141.783 48.2633 141.822 48.1875 141.822 48.0795V48.0568C141.822 47.7765 141.745 47.5587 141.592 47.4034C141.44 47.2481 141.21 47.1705 140.902 47.1705C140.581 47.1705 140.331 47.2405 140.149 47.3807C139.967 47.5208 139.839 47.6705 139.765 47.8295L139.129 47.6023C139.242 47.3371 139.394 47.1307 139.583 46.983C139.775 46.8333 139.983 46.7292 140.208 46.6705C140.436 46.6098 140.659 46.5795 140.879 46.5795C141.019 46.5795 141.18 46.5966 141.362 46.6307C141.545 46.6629 141.723 46.7301 141.893 46.8324C142.065 46.9347 142.208 47.089 142.322 47.2955C142.436 47.5019 142.492 47.7784 142.492 48.125V51H141.822V50.4091H141.788C141.742 50.5038 141.667 50.6051 141.561 50.7131C141.455 50.821 141.313 50.9129 141.137 50.9886C140.961 51.0644 140.746 51.1023 140.492 51.1023ZM140.595 50.5C140.86 50.5 141.083 50.4479 141.265 50.3438C141.449 50.2396 141.587 50.1051 141.68 49.9403C141.775 49.7756 141.822 49.6023 141.822 49.4205V48.8068C141.794 48.8409 141.731 48.8722 141.634 48.9006C141.54 48.9271 141.43 48.9508 141.305 48.9716C141.182 48.9905 141.062 49.0076 140.944 49.0227C140.829 49.036 140.735 49.0473 140.663 49.0568C140.489 49.0795 140.326 49.1165 140.174 49.1676C140.025 49.2169 139.903 49.2917 139.811 49.392C139.72 49.4905 139.674 49.625 139.674 49.7955C139.674 50.0284 139.76 50.2045 139.933 50.3239C140.107 50.4413 140.328 50.5 140.595 50.5ZM145.614 46.6364V47.2045H143.353V46.6364H145.614ZM144.012 45.5909H144.682V49.75C144.682 49.9394 144.71 50.0814 144.764 50.1761C144.821 50.2689 144.893 50.3314 144.98 50.3636C145.069 50.3939 145.163 50.4091 145.262 50.4091C145.335 50.4091 145.396 50.4053 145.443 50.3977C145.491 50.3883 145.529 50.3807 145.557 50.375L145.693 50.9773C145.648 50.9943 145.585 51.0114 145.503 51.0284C145.422 51.0473 145.318 51.0568 145.193 51.0568C145.004 51.0568 144.818 51.0161 144.637 50.9347C144.457 50.8532 144.307 50.7292 144.188 50.5625C144.07 50.3958 144.012 50.1856 144.012 49.9318V45.5909ZM146.622 51V46.6364H147.293V51H146.622ZM146.963 45.9091C146.833 45.9091 146.72 45.8646 146.625 45.7756C146.532 45.6866 146.486 45.5795 146.486 45.4545C146.486 45.3295 146.532 45.2225 146.625 45.1335C146.72 45.0445 146.833 45 146.963 45C147.094 45 147.206 45.0445 147.299 45.1335C147.393 45.2225 147.441 45.3295 147.441 45.4545C147.441 45.5795 147.393 45.6866 147.299 45.7756C147.206 45.8646 147.094 45.9091 146.963 45.9091ZM150.294 51.0909C149.9 51.0909 149.554 50.9972 149.257 50.8097C148.961 50.6222 148.73 50.3598 148.563 50.0227C148.399 49.6856 148.316 49.2917 148.316 48.8409C148.316 48.3864 148.399 47.9896 148.563 47.6506C148.73 47.3116 148.961 47.0483 149.257 46.8608C149.554 46.6733 149.9 46.5795 150.294 46.5795C150.688 46.5795 151.032 46.6733 151.328 46.8608C151.625 47.0483 151.856 47.3116 152.021 47.6506C152.188 47.9896 152.271 48.3864 152.271 48.8409C152.271 49.2917 152.188 49.6856 152.021 50.0227C151.856 50.3598 151.625 50.6222 151.328 50.8097C151.032 50.9972 150.688 51.0909 150.294 51.0909ZM150.294 50.4886C150.593 50.4886 150.839 50.4119 151.032 50.2585C151.225 50.1051 151.368 49.9034 151.461 49.6534C151.554 49.4034 151.6 49.1326 151.6 48.8409C151.6 48.5492 151.554 48.2775 151.461 48.0256C151.368 47.7737 151.225 47.5701 151.032 47.4148C150.839 47.2595 150.593 47.1818 150.294 47.1818C149.994 47.1818 149.748 47.2595 149.555 47.4148C149.362 47.5701 149.219 47.7737 149.126 48.0256C149.033 48.2775 148.987 48.5492 148.987 48.8409C148.987 49.1326 149.033 49.4034 149.126 49.6534C149.219 49.9034 149.362 50.1051 149.555 50.2585C149.748 50.4119 149.994 50.4886 150.294 50.4886ZM153.965 48.375V51H153.294V46.6364H153.942V47.3182H153.999C154.101 47.0966 154.256 46.9186 154.465 46.7841C154.673 46.6477 154.942 46.5795 155.272 46.5795C155.567 46.5795 155.826 46.6402 156.047 46.7614C156.269 46.8807 156.441 47.0625 156.564 47.3068C156.687 47.5492 156.749 47.8561 156.749 48.2273V51H156.078V48.2727C156.078 47.9299 155.989 47.6629 155.811 47.4716C155.633 47.2784 155.389 47.1818 155.078 47.1818C154.864 47.1818 154.673 47.2282 154.505 47.321C154.338 47.4138 154.206 47.5492 154.11 47.7273C154.013 47.9053 153.965 48.1212 153.965 48.375ZM158.463 51.0455C158.322 51.0455 158.202 50.9953 158.102 50.8949C158.001 50.7945 157.951 50.6742 157.951 50.5341C157.951 50.3939 158.001 50.2737 158.102 50.1733C158.202 50.0729 158.322 50.0227 158.463 50.0227C158.603 50.0227 158.723 50.0729 158.823 50.1733C158.924 50.2737 158.974 50.3939 158.974 50.5341C158.974 50.6269 158.95 50.7121 158.903 50.7898C158.858 50.8674 158.796 50.9299 158.718 50.9773C158.643 51.0227 158.557 51.0455 158.463 51.0455ZM158.463 47.8068C158.322 47.8068 158.202 47.7566 158.102 47.6562C158.001 47.5559 157.951 47.4356 157.951 47.2955C157.951 47.1553 158.001 47.035 158.102 46.9347C158.202 46.8343 158.322 46.7841 158.463 46.7841C158.603 46.7841 158.723 46.8343 158.823 46.9347C158.924 47.035 158.974 47.1553 158.974 47.2955C158.974 47.3883 158.95 47.4735 158.903 47.5511C158.858 47.6288 158.796 47.6913 158.718 47.7386C158.643 47.7841 158.557 47.8068 158.463 47.8068ZM164.313 51H162.518V45.1818H164.393C164.957 45.1818 165.44 45.2983 165.842 45.5312C166.243 45.7623 166.551 46.0947 166.765 46.5284C166.979 46.9602 167.086 47.4773 167.086 48.0795C167.086 48.6856 166.978 49.2074 166.762 49.6449C166.546 50.0805 166.232 50.4157 165.819 50.6506C165.406 50.8835 164.904 51 164.313 51ZM163.223 50.375H164.268C164.749 50.375 165.148 50.2822 165.464 50.0966C165.78 49.911 166.016 49.6468 166.171 49.304C166.327 48.9612 166.404 48.553 166.404 48.0795C166.404 47.6098 166.328 47.2055 166.174 46.8665C166.021 46.5256 165.792 46.2642 165.487 46.0824C165.182 45.8987 164.802 45.8068 164.348 45.8068H163.223V50.375ZM169.461 51.1023C169.185 51.1023 168.934 51.0502 168.708 50.946C168.483 50.84 168.304 50.6875 168.171 50.4886C168.039 50.2879 167.973 50.0455 167.973 49.7614C167.973 49.5114 168.022 49.3087 168.12 49.1534C168.219 48.9962 168.35 48.8731 168.515 48.7841C168.68 48.6951 168.862 48.6288 169.061 48.5852C169.261 48.5398 169.463 48.5038 169.666 48.4773C169.931 48.4432 170.146 48.4176 170.311 48.4006C170.477 48.3816 170.599 48.3504 170.674 48.3068C170.752 48.2633 170.791 48.1875 170.791 48.0795V48.0568C170.791 47.7765 170.714 47.5587 170.561 47.4034C170.409 47.2481 170.179 47.1705 169.87 47.1705C169.55 47.1705 169.299 47.2405 169.117 47.3807C168.936 47.5208 168.808 47.6705 168.734 47.8295L168.098 47.6023C168.211 47.3371 168.363 47.1307 168.552 46.983C168.743 46.8333 168.952 46.7292 169.177 46.6705C169.404 46.6098 169.628 46.5795 169.848 46.5795C169.988 46.5795 170.149 46.5966 170.331 46.6307C170.514 46.6629 170.691 46.7301 170.862 46.8324C171.034 46.9347 171.177 47.089 171.291 47.2955C171.404 47.5019 171.461 47.7784 171.461 48.125V51H170.791V50.4091H170.757C170.711 50.5038 170.635 50.6051 170.529 50.7131C170.423 50.821 170.282 50.9129 170.106 50.9886C169.93 51.0644 169.715 51.1023 169.461 51.1023ZM169.563 50.5C169.829 50.5 170.052 50.4479 170.234 50.3438C170.418 50.2396 170.556 50.1051 170.649 49.9403C170.743 49.7756 170.791 49.6023 170.791 49.4205V48.8068C170.762 48.8409 170.7 48.8722 170.603 48.9006C170.509 48.9271 170.399 48.9508 170.274 48.9716C170.151 48.9905 170.03 49.0076 169.913 49.0227C169.797 49.036 169.704 49.0473 169.632 49.0568C169.457 49.0795 169.295 49.1165 169.143 49.1676C168.993 49.2169 168.872 49.2917 168.779 49.392C168.688 49.4905 168.643 49.625 168.643 49.7955C168.643 50.0284 168.729 50.2045 168.902 50.3239C169.076 50.4413 169.296 50.5 169.563 50.5ZM173.355 45.1818V51H172.685V45.1818H173.355ZM175.254 45.1818V51H174.583V45.1818H175.254ZM177.766 51.1023C177.489 51.1023 177.238 51.0502 177.013 50.946C176.788 50.84 176.609 50.6875 176.476 50.4886C176.344 50.2879 176.277 50.0455 176.277 49.7614C176.277 49.5114 176.326 49.3087 176.425 49.1534C176.523 48.9962 176.655 48.8731 176.82 48.7841C176.985 48.6951 177.166 48.6288 177.365 48.5852C177.566 48.5398 177.768 48.5038 177.97 48.4773C178.236 48.4432 178.451 48.4176 178.615 48.4006C178.782 48.3816 178.903 48.3504 178.979 48.3068C179.057 48.2633 179.095 48.1875 179.095 48.0795V48.0568C179.095 47.7765 179.019 47.5587 178.865 47.4034C178.714 47.2481 178.484 47.1705 178.175 47.1705C177.855 47.1705 177.604 47.2405 177.422 47.3807C177.24 47.5208 177.112 47.6705 177.039 47.8295L176.402 47.6023C176.516 47.3371 176.667 47.1307 176.857 46.983C177.048 46.8333 177.256 46.7292 177.482 46.6705C177.709 46.6098 177.933 46.5795 178.152 46.5795C178.292 46.5795 178.453 46.5966 178.635 46.6307C178.819 46.6629 178.996 46.7301 179.166 46.8324C179.339 46.9347 179.482 47.089 179.595 47.2955C179.709 47.5019 179.766 47.7784 179.766 48.125V51H179.095V50.4091H179.061C179.016 50.5038 178.94 50.6051 178.834 50.7131C178.728 50.821 178.587 50.9129 178.411 50.9886C178.235 51.0644 178.02 51.1023 177.766 51.1023ZM177.868 50.5C178.133 50.5 178.357 50.4479 178.539 50.3438C178.722 50.2396 178.861 50.1051 178.953 49.9403C179.048 49.7756 179.095 49.6023 179.095 49.4205V48.8068C179.067 48.8409 179.005 48.8722 178.908 48.9006C178.813 48.9271 178.703 48.9508 178.578 48.9716C178.455 48.9905 178.335 49.0076 178.218 49.0227C178.102 49.036 178.008 49.0473 177.936 49.0568C177.762 49.0795 177.599 49.1165 177.448 49.1676C177.298 49.2169 177.177 49.2917 177.084 49.392C176.993 49.4905 176.948 49.625 176.948 49.7955C176.948 50.0284 177.034 50.2045 177.206 50.3239C177.38 50.4413 177.601 50.5 177.868 50.5ZM184.081 47.6136L183.478 47.7841C183.44 47.6837 183.384 47.5862 183.311 47.4915C183.239 47.3949 183.14 47.3153 183.015 47.2528C182.89 47.1903 182.73 47.1591 182.535 47.1591C182.268 47.1591 182.045 47.2206 181.867 47.3438C181.691 47.465 181.603 47.6193 181.603 47.8068C181.603 47.9735 181.664 48.1051 181.785 48.2017C181.906 48.2983 182.096 48.3788 182.353 48.4432L183.001 48.6023C183.391 48.697 183.682 48.8419 183.873 49.0369C184.064 49.2301 184.16 49.4792 184.16 49.7841C184.16 50.0341 184.088 50.2576 183.944 50.4545C183.802 50.6515 183.603 50.8068 183.348 50.9205C183.092 51.0341 182.795 51.0909 182.456 51.0909C182.01 51.0909 181.642 50.9943 181.35 50.8011C181.059 50.608 180.874 50.3258 180.796 49.9545L181.433 49.7955C181.493 50.0303 181.608 50.2064 181.777 50.3239C181.947 50.4413 182.17 50.5 182.444 50.5C182.757 50.5 183.005 50.4337 183.188 50.3011C183.374 50.1667 183.467 50.0057 183.467 49.8182C183.467 49.6667 183.414 49.5398 183.308 49.4375C183.202 49.3333 183.039 49.2557 182.819 49.2045L182.092 49.0341C181.692 48.9394 181.399 48.7926 181.211 48.5938C181.026 48.393 180.933 48.142 180.933 47.8409C180.933 47.5947 181.002 47.3769 181.14 47.1875C181.28 46.9981 181.471 46.8494 181.711 46.7415C181.954 46.6335 182.228 46.5795 182.535 46.5795C182.967 46.5795 183.306 46.6742 183.552 46.8636C183.8 47.053 183.976 47.303 184.081 47.6136ZM186.169 50.2045L186.124 50.5114C186.092 50.7273 186.042 50.9583 185.976 51.2045C185.912 51.4508 185.844 51.6828 185.774 51.9006C185.704 52.1184 185.647 52.2917 185.601 52.4205H185.09C185.114 52.2992 185.147 52.1392 185.186 51.9403C185.226 51.7415 185.266 51.5189 185.306 51.2727C185.347 51.0284 185.381 50.7784 185.408 50.5227L185.442 50.2045H186.169ZM189.434 45.8068V45.1818H193.798V45.8068H191.968V51H191.264V45.8068H189.434ZM195.226 45.1818L196.726 47.6023H196.772L198.272 45.1818H199.101L197.272 48.0909L199.101 51H198.272L196.772 48.625H196.726L195.226 51H194.397L196.272 48.0909L194.397 45.1818H195.226Z" fill="black"/>
<path d="M130.426 4H129.722C129.68 3.79735 129.607 3.61932 129.503 3.46591C129.401 3.3125 129.276 3.18371 129.128 3.07955C128.982 2.97348 128.82 2.89394 128.642 2.84091C128.464 2.78788 128.279 2.76136 128.085 2.76136C127.733 2.76136 127.414 2.85038 127.128 3.02841C126.844 3.20644 126.618 3.46875 126.449 3.81534C126.282 4.16193 126.199 4.58712 126.199 5.09091C126.199 5.5947 126.282 6.01989 126.449 6.36648C126.618 6.71307 126.844 6.97538 127.128 7.15341C127.414 7.33144 127.733 7.42045 128.085 7.42045C128.279 7.42045 128.464 7.39394 128.642 7.34091C128.82 7.28788 128.982 7.20928 129.128 7.10511C129.276 6.99905 129.401 6.86932 129.503 6.71591C129.607 6.56061 129.68 6.38258 129.722 6.18182H130.426C130.373 6.47917 130.277 6.74527 130.137 6.98011C129.996 7.21496 129.822 7.41477 129.614 7.57955C129.406 7.74242 129.172 7.86648 128.912 7.9517C128.655 8.03693 128.379 8.07955 128.085 8.07955C127.589 8.07955 127.148 7.95833 126.762 7.71591C126.375 7.47348 126.071 7.12879 125.85 6.68182C125.628 6.23485 125.517 5.70455 125.517 5.09091C125.517 4.47727 125.628 3.94697 125.85 3.5C126.071 3.05303 126.375 2.70833 126.762 2.46591C127.148 2.22348 127.589 2.10227 128.085 2.10227C128.379 2.10227 128.655 2.14489 128.912 2.23011C129.172 2.31534 129.406 2.44034 129.614 2.60511C129.822 2.76799 129.996 2.96686 130.137 3.2017C130.277 3.43466 130.373 3.70076 130.426 4ZM133.247 8.09091C132.853 8.09091 132.507 7.99716 132.21 7.80966C131.914 7.62216 131.683 7.35985 131.517 7.02273C131.352 6.68561 131.269 6.29167 131.269 5.84091C131.269 5.38636 131.352 4.98958 131.517 4.65057C131.683 4.31155 131.914 4.0483 132.21 3.8608C132.507 3.6733 132.853 3.57955 133.247 3.57955C133.641 3.57955 133.985 3.6733 134.281 3.8608C134.578 4.0483 134.809 4.31155 134.974 4.65057C135.141 4.98958 135.224 5.38636 135.224 5.84091C135.224 6.29167 135.141 6.68561 134.974 7.02273C134.809 7.35985 134.578 7.62216 134.281 7.80966C133.985 7.99716 133.641 8.09091 133.247 8.09091ZM133.247 7.48864C133.546 7.48864 133.792 7.41193 133.985 7.25852C134.179 7.10511 134.322 6.90341 134.414 6.65341C134.507 6.40341 134.554 6.13258 134.554 5.84091C134.554 5.54924 134.507 5.27746 134.414 5.02557C134.322 4.77367 134.179 4.57008 133.985 4.41477C133.792 4.25947 133.546 4.18182 133.247 4.18182C132.947 4.18182 132.701 4.25947 132.508 4.41477C132.315 4.57008 132.172 4.77367 132.079 5.02557C131.986 5.27746 131.94 5.54924 131.94 5.84091C131.94 6.13258 131.986 6.40341 132.079 6.65341C132.172 6.90341 132.315 7.10511 132.508 7.25852C132.701 7.41193 132.947 7.48864 133.247 7.48864ZM136.247 8V3.63636H136.895V4.31818H136.952C137.043 4.08523 137.19 3.90436 137.392 3.77557C137.595 3.64489 137.838 3.57955 138.122 3.57955C138.41 3.57955 138.65 3.64489 138.841 3.77557C139.034 3.90436 139.185 4.08523 139.293 4.31818H139.338C139.45 4.0928 139.618 3.91383 139.841 3.78125C140.065 3.64678 140.333 3.57955 140.645 3.57955C141.035 3.57955 141.354 3.7017 141.603 3.94602C141.851 4.18845 141.975 4.56629 141.975 5.07955V8H141.304V5.07955C141.304 4.75758 141.216 4.52746 141.04 4.3892C140.864 4.25095 140.657 4.18182 140.418 4.18182C140.111 4.18182 139.873 4.27462 139.705 4.46023C139.536 4.64394 139.452 4.87689 139.452 5.15909V8H138.77V5.01136C138.77 4.76326 138.69 4.56345 138.529 4.41193C138.368 4.25852 138.16 4.18182 137.907 4.18182C137.732 4.18182 137.569 4.22822 137.418 4.32102C137.268 4.41383 137.147 4.54261 137.054 4.70739C136.963 4.87027 136.918 5.05871 136.918 5.27273V8H136.247ZM143.201 8V3.63636H143.848V4.31818H143.905C143.996 4.08523 144.143 3.90436 144.345 3.77557C144.548 3.64489 144.791 3.57955 145.076 3.57955C145.363 3.57955 145.603 3.64489 145.794 3.77557C145.987 3.90436 146.138 4.08523 146.246 4.31818H146.291C146.403 4.0928 146.571 3.91383 146.794 3.78125C147.018 3.64678 147.286 3.57955 147.598 3.57955C147.988 3.57955 148.308 3.7017 148.556 3.94602C148.804 4.18845 148.928 4.56629 148.928 5.07955V8H148.257V5.07955C148.257 4.75758 148.169 4.52746 147.993 4.3892C147.817 4.25095 147.61 4.18182 147.371 4.18182C147.064 4.18182 146.826 4.27462 146.658 4.46023C146.489 4.64394 146.405 4.87689 146.405 5.15909V8H145.723V5.01136C145.723 4.76326 145.643 4.56345 145.482 4.41193C145.321 4.25852 145.113 4.18182 144.86 4.18182C144.685 4.18182 144.523 4.22822 144.371 4.32102C144.221 4.41383 144.1 4.54261 144.007 4.70739C143.916 4.87027 143.871 5.05871 143.871 5.27273V8H143.201ZM152.904 6.21591V3.63636H153.574V8H152.904V7.26136H152.858C152.756 7.48295 152.597 7.6714 152.381 7.8267C152.165 7.98011 151.892 8.05682 151.563 8.05682C151.29 8.05682 151.048 7.99716 150.835 7.87784C150.623 7.75663 150.457 7.57481 150.335 7.33239C150.214 7.08807 150.154 6.7803 150.154 6.40909V3.63636H150.824V6.36364C150.824 6.68182 150.913 6.93561 151.091 7.125C151.271 7.31439 151.5 7.40909 151.779 7.40909C151.945 7.40909 152.115 7.36648 152.287 7.28125C152.461 7.19602 152.607 7.06534 152.725 6.8892C152.844 6.71307 152.904 6.48864 152.904 6.21591ZM155.473 5.375V8H154.802V3.63636H155.45V4.31818H155.507C155.609 4.09659 155.764 3.91856 155.973 3.78409C156.181 3.64773 156.45 3.57955 156.779 3.57955C157.075 3.57955 157.333 3.64015 157.555 3.76136C157.777 3.88068 157.949 4.0625 158.072 4.30682C158.195 4.54924 158.257 4.85606 158.257 5.22727V8H157.586V5.27273C157.586 4.92992 157.497 4.66288 157.319 4.47159C157.141 4.27841 156.897 4.18182 156.586 4.18182C156.372 4.18182 156.181 4.22822 156.012 4.32102C155.846 4.41383 155.714 4.54924 155.617 4.72727C155.521 4.9053 155.473 5.12121 155.473 5.375ZM159.482 8V3.63636H160.152V8H159.482ZM159.823 2.90909C159.692 2.90909 159.579 2.86458 159.485 2.77557C159.392 2.68655 159.345 2.57955 159.345 2.45455C159.345 2.32955 159.392 2.22254 159.485 2.13352C159.579 2.04451 159.692 2 159.823 2C159.953 2 160.065 2.04451 160.158 2.13352C160.253 2.22254 160.3 2.32955 160.3 2.45455C160.3 2.57955 160.253 2.68655 160.158 2.77557C160.065 2.86458 159.953 2.90909 159.823 2.90909ZM163.278 3.63636V4.20455H161.017V3.63636H163.278ZM161.676 2.59091H162.346V6.75C162.346 6.93939 162.374 7.08144 162.429 7.17614C162.485 7.26894 162.557 7.33144 162.644 7.36364C162.733 7.39394 162.827 7.40909 162.926 7.40909C163 7.40909 163.06 7.4053 163.108 7.39773C163.155 7.38826 163.193 7.38068 163.221 7.375L163.358 7.97727C163.312 7.99432 163.249 8.01136 163.167 8.02841C163.086 8.04735 162.983 8.05682 162.858 8.05682C162.668 8.05682 162.483 8.0161 162.301 7.93466C162.121 7.85322 161.971 7.72917 161.852 7.5625C161.734 7.39583 161.676 7.18561 161.676 6.93182V2.59091ZM164.718 9.63636C164.605 9.63636 164.503 9.62689 164.414 9.60795C164.325 9.59091 164.264 9.57386 164.23 9.55682L164.4 8.96591C164.563 9.00758 164.707 9.02273 164.832 9.01136C164.957 9 165.068 8.94413 165.164 8.84375C165.263 8.74527 165.353 8.58523 165.434 8.36364L165.559 8.02273L163.946 3.63636H164.673L165.877 7.11364H165.923L167.127 3.63636H167.855L166.002 8.63636C165.919 8.86174 165.816 9.0483 165.693 9.19602C165.57 9.34564 165.427 9.45644 165.264 9.52841C165.103 9.60038 164.921 9.63636 164.718 9.63636ZM174.081 4.61364L173.478 4.78409C173.44 4.68371 173.384 4.58617 173.311 4.49148C173.239 4.39489 173.14 4.31534 173.015 4.25284C172.89 4.19034 172.73 4.15909 172.535 4.15909C172.268 4.15909 172.045 4.22064 171.867 4.34375C171.691 4.46496 171.603 4.61932 171.603 4.80682C171.603 4.97348 171.664 5.10511 171.785 5.2017C171.906 5.2983 172.096 5.37879 172.353 5.44318L173.001 5.60227C173.391 5.69697 173.682 5.84186 173.873 6.03693C174.064 6.23011 174.16 6.47917 174.16 6.78409C174.16 7.03409 174.088 7.25758 173.944 7.45455C173.802 7.65152 173.603 7.80682 173.348 7.92045C173.092 8.03409 172.795 8.09091 172.456 8.09091C172.01 8.09091 171.642 7.99432 171.35 7.80114C171.059 7.60795 170.874 7.32576 170.796 6.95455L171.433 6.79545C171.493 7.0303 171.608 7.20644 171.777 7.32386C171.947 7.44129 172.17 7.5 172.444 7.5C172.757 7.5 173.005 7.43371 173.188 7.30114C173.374 7.16667 173.467 7.00568 173.467 6.81818C173.467 6.66667 173.414 6.53977 173.308 6.4375C173.202 6.33333 173.039 6.25568 172.819 6.20455L172.092 6.03409C171.692 5.93939 171.399 5.79261 171.211 5.59375C171.026 5.39299 170.933 5.14205 170.933 4.84091C170.933 4.5947 171.002 4.37689 171.14 4.1875C171.28 3.99811 171.471 3.84943 171.711 3.74148C171.954 3.63352 172.228 3.57955 172.535 3.57955C172.967 3.57955 173.306 3.67424 173.552 3.86364C173.8 4.05303 173.976 4.30303 174.081 4.61364ZM176.942 8.09091C176.533 8.09091 176.181 7.99432 175.885 7.80114C175.59 7.60795 175.362 7.34186 175.203 7.00284C175.044 6.66383 174.965 6.27652 174.965 5.84091C174.965 5.39773 175.046 5.00663 175.209 4.66761C175.374 4.3267 175.603 4.06061 175.897 3.86932C176.192 3.67614 176.537 3.57955 176.931 3.57955C177.237 3.57955 177.514 3.63636 177.76 3.75C178.006 3.86364 178.208 4.02273 178.365 4.22727C178.523 4.43182 178.62 4.67045 178.658 4.94318H177.987C177.936 4.74432 177.823 4.56818 177.647 4.41477C177.472 4.25947 177.237 4.18182 176.942 4.18182C176.681 4.18182 176.451 4.25 176.255 4.38636C176.059 4.52083 175.907 4.71117 175.797 4.95739C175.689 5.2017 175.635 5.48864 175.635 5.81818C175.635 6.1553 175.688 6.44886 175.794 6.69886C175.902 6.94886 176.054 7.14299 176.249 7.28125C176.446 7.41951 176.677 7.48864 176.942 7.48864C177.116 7.48864 177.274 7.45833 177.416 7.39773C177.559 7.33712 177.679 7.25 177.777 7.13636C177.876 7.02273 177.946 6.88636 177.987 6.72727H178.658C178.62 6.98485 178.526 7.21686 178.377 7.4233C178.229 7.62784 178.033 7.79072 177.789 7.91193C177.546 8.03125 177.264 8.09091 176.942 8.09091ZM181.411 8.09091C181.017 8.09091 180.671 7.99716 180.374 7.80966C180.078 7.62216 179.847 7.35985 179.681 7.02273C179.516 6.68561 179.434 6.29167 179.434 5.84091C179.434 5.38636 179.516 4.98958 179.681 4.65057C179.847 4.31155 180.078 4.0483 180.374 3.8608C180.671 3.6733 181.017 3.57955 181.411 3.57955C181.805 3.57955 182.149 3.6733 182.445 3.8608C182.742 4.0483 182.973 4.31155 183.138 4.65057C183.305 4.98958 183.388 5.38636 183.388 5.84091C183.388 6.29167 183.305 6.68561 183.138 7.02273C182.973 7.35985 182.742 7.62216 182.445 7.80966C182.149 7.99716 181.805 8.09091 181.411 8.09091ZM181.411 7.48864C181.71 7.48864 181.956 7.41193 182.149 7.25852C182.343 7.10511 182.486 6.90341 182.578 6.65341C182.671 6.40341 182.718 6.13258 182.718 5.84091C182.718 5.54924 182.671 5.27746 182.578 5.02557C182.486 4.77367 182.343 4.57008 182.149 4.41477C181.956 4.25947 181.71 4.18182 181.411 4.18182C181.112 4.18182 180.865 4.25947 180.672 4.41477C180.479 4.57008 180.336 4.77367 180.243 5.02557C180.15 5.27746 180.104 5.54924 180.104 5.84091C180.104 6.13258 180.15 6.40341 180.243 6.65341C180.336 6.90341 180.479 7.10511 180.672 7.25852C180.865 7.41193 181.112 7.48864 181.411 7.48864ZM184.411 8V3.63636H185.059V4.29545H185.105C185.184 4.07955 185.328 3.90436 185.536 3.76989C185.745 3.63542 185.98 3.56818 186.241 3.56818C186.29 3.56818 186.352 3.56913 186.426 3.57102C186.5 3.57292 186.555 3.57576 186.593 3.57955V4.26136C186.571 4.25568 186.518 4.24716 186.437 4.2358C186.358 4.22254 186.273 4.21591 186.184 4.21591C185.972 4.21591 185.783 4.26042 185.616 4.34943C185.451 4.43655 185.321 4.55777 185.224 4.71307C185.129 4.86648 185.082 5.04167 185.082 5.23864V8H184.411ZM189.085 8.09091C188.664 8.09091 188.302 7.99811 187.997 7.8125C187.694 7.625 187.46 7.36364 187.295 7.02841C187.132 6.69129 187.051 6.29924 187.051 5.85227C187.051 5.4053 187.132 5.01136 187.295 4.67045C187.46 4.32765 187.689 4.06061 187.983 3.86932C188.278 3.67614 188.623 3.57955 189.017 3.57955C189.244 3.57955 189.468 3.61742 189.69 3.69318C189.911 3.76894 190.113 3.89205 190.295 4.0625C190.477 4.23106 190.622 4.45455 190.73 4.73295C190.838 5.01136 190.892 5.35417 190.892 5.76136V6.04545H187.528V5.46591H190.21C190.21 5.2197 190.161 5 190.062 4.80682C189.965 4.61364 189.827 4.46117 189.647 4.34943C189.469 4.23769 189.259 4.18182 189.017 4.18182C188.75 4.18182 188.518 4.24811 188.323 4.38068C188.13 4.51136 187.982 4.68182 187.877 4.89205C187.773 5.10227 187.721 5.32765 187.721 5.56818V5.95455C187.721 6.28409 187.778 6.56345 187.892 6.79261C188.007 7.01989 188.167 7.19318 188.372 7.3125C188.576 7.42992 188.814 7.48864 189.085 7.48864C189.261 7.48864 189.42 7.46402 189.562 7.41477C189.706 7.36364 189.83 7.28788 189.934 7.1875C190.038 7.08523 190.119 6.95833 190.176 6.80682L190.823 6.98864C190.755 7.20833 190.641 7.40152 190.48 7.56818C190.319 7.73295 190.12 7.86174 189.883 7.95455C189.646 8.04545 189.38 8.09091 189.085 8.09091ZM192.4 8.04545C192.26 8.04545 192.14 7.99527 192.039 7.89489C191.939 7.79451 191.889 7.67424 191.889 7.53409C191.889 7.39394 191.939 7.27367 192.039 7.1733C192.14 7.07292 192.26 7.02273 192.4 7.02273C192.54 7.02273 192.661 7.07292 192.761 7.1733C192.861 7.27367 192.911 7.39394 192.911 7.53409C192.911 7.62689 192.888 7.71212 192.84 7.78977C192.795 7.86742 192.733 7.92992 192.656 7.97727C192.58 8.02273 192.495 8.04545 192.4 8.04545ZM192.4 4.80682C192.26 4.80682 192.14 4.75663 192.039 4.65625C191.939 4.55587 191.889 4.43561 191.889 4.29545C191.889 4.1553 191.939 4.03504 192.039 3.93466C192.14 3.83428 192.26 3.78409 192.4 3.78409C192.54 3.78409 192.661 3.83428 192.761 3.93466C192.861 4.03504 192.911 4.1553 192.911 4.29545C192.911 4.38826 192.888 4.47348 192.84 4.55114C192.795 4.62879 192.733 4.69129 192.656 4.73864C192.58 4.78409 192.495 4.80682 192.4 4.80682Z" fill="black"/>
<path d="M243.04 4.08296C243.04 3.64031 243.189 3.20916 243.465 2.85205C243.741 2.49494 244.131 2.23046 244.577 2.09696C245.022 1.96347 245.502 1.96792 245.944 2.10966C246.387 2.2514 246.771 2.52306 247.04 2.88523C247.309 2.52306 247.693 2.2514 248.136 2.10966C248.579 1.96792 249.058 1.96347 249.504 2.09696C249.949 2.23046 250.339 2.49494 250.615 2.85205C250.891 3.20916 251.04 3.64031 251.04 4.08296C251.04 6.92299 247.04 9 247.04 9C247.04 9 243.04 6.92299 243.04 4.08296Z" fill="black"/>
<path d="M201.04 4.08296C201.04 3.64031 201.189 3.20916 201.465 2.85205C201.741 2.49494 202.131 2.23046 202.577 2.09696C203.022 1.96347 203.502 1.96792 203.944 2.10966C204.387 2.2514 204.771 2.52306 205.04 2.88523C205.309 2.52306 205.693 2.2514 206.136 2.10966C206.579 1.96792 207.058 1.96347 207.504 2.09696C207.949 2.23046 208.339 2.49494 208.615 2.85205C208.891 3.20916 209.04 3.64031 209.04 4.08296C209.04 6.92299 205.04 9 205.04 9C205.04 9 201.04 6.92299 201.04 4.08296Z" fill="black"/>
<path d="M229.04 4.08296C229.04 3.64031 229.189 3.20916 229.465 2.85205C229.741 2.49494 230.131 2.23046 230.577 2.09696C231.022 1.96347 231.502 1.96792 231.944 2.10966C232.387 2.2514 232.771 2.52306 233.04 2.88523C233.309 2.52306 233.693 2.2514 234.136 2.10966C234.579 1.96792 235.058 1.96347 235.504 2.09696C235.949 2.23046 236.339 2.49494 236.615 2.85205C236.891 3.20916 237.04 3.64031 237.04 4.08296C237.04 6.92299 233.04 9 233.04 9C233.04 9 229.04 6.92299 229.04 4.08296Z" fill="black"/>
<path d="M215.04 4.08296C215.04 3.64031 215.189 3.20916 215.465 2.85205C215.741 2.49494 216.131 2.23046 216.577 2.09696C217.022 1.96347 217.502 1.96792 217.944 2.10966C218.387 2.2514 218.771 2.52306 219.04 2.88523C219.309 2.52306 219.693 2.2514 220.136 2.10966C220.579 1.96792 221.058 1.96347 221.504 2.09696C221.949 2.23046 222.339 2.49494 222.615 2.85205C222.891 3.20916 223.04 3.64031 223.04 4.08296C223.04 6.92299 219.04 9 219.04 9C219.04 9 215.04 6.92299 215.04 4.08296Z" fill="black"/>
<path d="M261.54 4.20046L262.276 3.32121C262.468 3.09054 262.743 2.91747 263.06 2.82713C263.377 2.73678 263.72 2.73386 264.04 2.81879C264.359 2.90373 264.638 3.07209 264.836 3.29944C265.034 3.52679 265.14 3.80129 265.14 4.08308C265.14 5.17325 264.258 6.21154 263.179 7.05027C262.67 7.44355 262.121 7.79952 261.54 8.11431C260.959 7.79952 260.41 7.44355 259.901 7.05027C258.822 6.21191 257.94 5.17325 257.94 4.08308C257.94 3.80129 258.046 3.52679 258.244 3.29944C258.442 3.07209 258.721 2.90373 259.04 2.81879C259.36 2.73386 259.703 2.73678 260.02 2.82713C260.337 2.91747 260.612 3.09054 260.804 3.32121L261.54 4.20046ZM260.89 2.35108C260.518 2.1415 260.084 2.02102 259.636 2.00251C259.189 1.984 258.744 2.06815 258.348 2.24598C257.953 2.42381 257.622 2.68864 257.392 3.0122C257.162 3.33575 257.04 3.70589 257.04 4.08308C257.04 6.92304 261.54 9 261.54 9C261.54 9 266.04 6.92304 266.04 4.08308C266.04 3.64044 265.873 3.2093 265.562 2.8522C265.251 2.4951 264.813 2.23062 264.311 2.09713C263.81 1.96364 263.271 1.96809 262.773 2.10982C262.274 2.25156 261.842 2.52321 261.54 2.88537C261.364 2.6752 261.144 2.4938 260.89 2.35108Z" fill="black"/>
<ellipse cx="47.5763" cy="39" rx="36.1994" ry="35" fill="black"/>
<path d="M31.8115 50.25C31.8115 48.2609 32.6267 46.3532 34.0777 44.9467C35.5287 43.5402 37.4967 42.75 39.5488 42.75H55.0233C57.0754 42.75 59.0434 43.5402 60.4944 44.9467C61.9454 46.3532 62.7606 48.2609 62.7606 50.25C62.7606 51.2446 62.353 52.1984 61.6275 52.9017C60.902 53.6049 59.918 54 58.892 54H35.6802C34.6541 54 33.6701 53.6049 32.9446 52.9017C32.2191 52.1984 31.8115 51.2446 31.8115 50.25Z" stroke="white" stroke-opacity="0.99" stroke-width="3" stroke-linejoin="round"/>
<path d="M47.2854 35.25C50.4903 35.25 53.0883 32.7316 53.0883 29.625C53.0883 26.5184 50.4903 24 47.2854 24C44.0805 24 41.4824 26.5184 41.4824 29.625C41.4824 32.7316 44.0805 35.25 47.2854 35.25Z" stroke="white" stroke-opacity="0.99" stroke-width="2.5"/>
<path d="M6.53407 83.2727H8.80963L11.213 89.1364H11.3153L13.7187 83.2727H15.9943V92H14.2045V86.3196H14.1321L11.8736 91.9574H10.6548L8.39628 86.2983H8.32384V92H6.53407V83.2727ZM19.3469 92.1236C18.9293 92.1236 18.5571 92.0511 18.2304 91.9062C17.9037 91.7585 17.6452 91.5412 17.4549 91.2543C17.2674 90.9645 17.1736 90.6037 17.1736 90.1719C17.1736 89.8082 17.2404 89.5028 17.3739 89.2557C17.5074 89.0085 17.6893 88.8097 17.9194 88.6591C18.1495 88.5085 18.4108 88.3949 18.7035 88.3182C18.9989 88.2415 19.3086 88.1875 19.6324 88.1562C20.0131 88.1165 20.3199 88.0795 20.5529 88.0455C20.7858 88.0085 20.9549 87.9545 21.06 87.8835C21.1651 87.8125 21.2177 87.7074 21.2177 87.5682V87.5426C21.2177 87.2727 21.1324 87.0639 20.962 86.9162C20.7944 86.7685 20.5557 86.6946 20.2461 86.6946C19.9194 86.6946 19.6594 86.767 19.4662 86.9119C19.2731 87.054 19.1452 87.233 19.0827 87.4489L17.4037 87.3125C17.489 86.9148 17.6566 86.571 17.9066 86.2812C18.1566 85.9886 18.479 85.7642 18.8739 85.608C19.2716 85.4489 19.7319 85.3693 20.2546 85.3693C20.6182 85.3693 20.9662 85.4119 21.2986 85.4972C21.6339 85.5824 21.9307 85.7145 22.1893 85.8935C22.4506 86.0724 22.6566 86.3026 22.8071 86.5838C22.9577 86.8622 23.033 87.196 23.033 87.5852V92H21.3114V91.0923H21.2603C21.1552 91.2969 21.0145 91.4773 20.8384 91.6335C20.6623 91.7869 20.4506 91.9077 20.2035 91.9957C19.9563 92.081 19.6708 92.1236 19.3469 92.1236ZM19.8668 90.8707C20.1339 90.8707 20.3696 90.8182 20.5742 90.7131C20.7787 90.6051 20.9393 90.4602 21.0557 90.2784C21.1722 90.0966 21.2304 89.8906 21.2304 89.6605V88.9659C21.1736 89.0028 21.0955 89.0369 20.9961 89.0682C20.8995 89.0966 20.7901 89.1236 20.6679 89.1491C20.5458 89.1719 20.4236 89.1932 20.3015 89.2131C20.1793 89.2301 20.0685 89.2457 19.9691 89.2599C19.756 89.2912 19.5699 89.3409 19.4108 89.4091C19.2518 89.4773 19.1282 89.5696 19.0401 89.6861C18.952 89.7997 18.908 89.9418 18.908 90.1122C18.908 90.3594 18.9975 90.5483 19.1765 90.679C19.3583 90.8068 19.5884 90.8707 19.8668 90.8707ZM29.8874 87.321L28.2255 87.4233C28.1971 87.2812 28.136 87.1534 28.0422 87.0398C27.9485 86.9233 27.8249 86.831 27.6715 86.7628C27.5209 86.6918 27.3405 86.6562 27.1303 86.6562C26.8491 86.6562 26.6118 86.7159 26.4187 86.8352C26.2255 86.9517 26.1289 87.108 26.1289 87.304C26.1289 87.4602 26.1914 87.5923 26.3164 87.7003C26.4414 87.8082 26.6559 87.8949 26.9598 87.9602L28.1445 88.1989C28.7809 88.3295 29.2553 88.5398 29.5678 88.8295C29.8803 89.1193 30.0366 89.5 30.0366 89.9716C30.0366 90.4006 29.9101 90.777 29.6573 91.1009C29.4073 91.4247 29.0635 91.6776 28.626 91.8594C28.1914 92.0384 27.69 92.1278 27.1218 92.1278C26.2553 92.1278 25.565 91.9474 25.0508 91.5866C24.5394 91.223 24.2397 90.7287 24.1516 90.1037L25.9371 90.0099C25.9911 90.2741 26.1218 90.4759 26.3292 90.6151C26.5366 90.7514 26.8022 90.8196 27.126 90.8196C27.4442 90.8196 27.6999 90.7585 27.8931 90.6364C28.0891 90.5114 28.1885 90.3509 28.1914 90.1548C28.1885 89.9901 28.1189 89.8551 27.9826 89.75C27.8462 89.642 27.636 89.5597 27.3519 89.5028L26.2184 89.277C25.5792 89.1491 25.1033 88.9276 24.7908 88.6122C24.4812 88.2969 24.3263 87.8949 24.3263 87.4062C24.3263 86.9858 24.44 86.6236 24.6672 86.3196C24.8973 86.0156 25.2198 85.7812 25.6346 85.6165C26.0522 85.4517 26.5408 85.3693 27.1005 85.3693C27.9272 85.3693 28.5777 85.544 29.0522 85.8935C29.5294 86.2429 29.8079 86.7187 29.8874 87.321ZM34.6612 85.4545V86.8182H30.7194V85.4545H34.6612ZM31.6143 83.8864H33.4297V89.9886C33.4297 90.1562 33.4552 90.2869 33.5064 90.3807C33.5575 90.4716 33.6285 90.5355 33.7194 90.5724C33.8132 90.6094 33.9211 90.6278 34.0433 90.6278C34.1285 90.6278 34.2138 90.6207 34.299 90.6065C34.3842 90.5895 34.4495 90.5767 34.495 90.5682L34.7805 91.919C34.6896 91.9474 34.5618 91.9801 34.397 92.017C34.2322 92.0568 34.0319 92.081 33.7961 92.0895C33.3586 92.1065 32.9751 92.0483 32.6456 91.9148C32.3189 91.7812 32.0646 91.5739 31.8828 91.2926C31.701 91.0114 31.6115 90.6562 31.6143 90.2273V83.8864ZM38.7564 92.1278C38.0831 92.1278 37.5035 91.9915 37.0177 91.7188C36.5348 91.4432 36.1626 91.054 35.9013 90.5511C35.6399 90.0455 35.5092 89.4474 35.5092 88.7571C35.5092 88.0838 35.6399 87.4929 35.9013 86.9844C36.1626 86.4759 36.5305 86.0795 37.0049 85.7955C37.4822 85.5114 38.0419 85.3693 38.6839 85.3693C39.1157 85.3693 39.5177 85.4389 39.8899 85.5781C40.2649 85.7145 40.5916 85.9205 40.87 86.196C41.1513 86.4716 41.37 86.8182 41.5263 87.2358C41.6825 87.6506 41.7606 88.1364 41.7606 88.6932V89.1918H36.2336V88.0668H40.0518C40.0518 87.8054 39.995 87.5739 39.8814 87.3722C39.7677 87.1705 39.6101 87.0128 39.4084 86.8991C39.2095 86.7827 38.978 86.7244 38.7138 86.7244C38.4382 86.7244 38.1939 86.7884 37.9808 86.9162C37.7706 87.0412 37.6058 87.2102 37.4865 87.4233C37.3672 87.6335 37.3061 87.8679 37.3032 88.1264V89.196C37.3032 89.5199 37.3629 89.7997 37.4822 90.0355C37.6044 90.2713 37.7763 90.4531 37.9978 90.581C38.2194 90.7088 38.4822 90.7727 38.7862 90.7727C38.9879 90.7727 39.1726 90.7443 39.3402 90.6875C39.5078 90.6307 39.6513 90.5455 39.7706 90.4318C39.8899 90.3182 39.9808 90.179 40.0433 90.0142L41.7223 90.125C41.637 90.5284 41.4623 90.8807 41.1981 91.1818C40.9368 91.4801 40.5987 91.7131 40.1839 91.8807C39.772 92.0455 39.2961 92.1278 38.7564 92.1278ZM42.9453 92V85.4545H44.7052V86.5966H44.7734C44.8927 86.1903 45.093 85.8835 45.3743 85.6761C45.6555 85.4659 45.9794 85.3608 46.3459 85.3608C46.4368 85.3608 46.5348 85.3665 46.6399 85.3778C46.745 85.3892 46.8373 85.4048 46.9169 85.4247V87.0355C46.8317 87.0099 46.7138 86.9872 46.5632 86.9673C46.4126 86.9474 46.2748 86.9375 46.1498 86.9375C45.8828 86.9375 45.6442 86.9957 45.4339 87.1122C45.2265 87.2259 45.0618 87.3849 44.9396 87.5895C44.8203 87.794 44.7606 88.0298 44.7606 88.2969V92H42.9453ZM47.8895 92V83.2727H51.3327C51.9946 83.2727 52.5586 83.3991 53.0245 83.652C53.4904 83.902 53.8455 84.25 54.0898 84.696C54.337 85.1392 54.4606 85.6506 54.4606 86.2301C54.4606 86.8097 54.3356 87.321 54.0856 87.7642C53.8356 88.2074 53.4733 88.5526 52.9989 88.7997C52.5273 89.0469 51.9563 89.1705 51.2858 89.1705H49.0912V87.6918H50.9875C51.3427 87.6918 51.6353 87.6307 51.8654 87.5085C52.0983 87.3835 52.2716 87.2116 52.3853 86.9929C52.5018 86.7713 52.56 86.517 52.56 86.2301C52.56 85.9403 52.5018 85.6875 52.3853 85.4716C52.2716 85.2528 52.0983 85.0838 51.8654 84.9645C51.6324 84.8423 51.337 84.7812 50.979 84.7812H49.7347V92H47.8895ZM55.625 92V85.4545H57.4403V92H55.625ZM56.5369 84.6108C56.267 84.6108 56.0355 84.5213 55.8423 84.3423C55.652 84.1605 55.5568 83.9432 55.5568 83.6903C55.5568 83.4403 55.652 83.2259 55.8423 83.0469C56.0355 82.8651 56.267 82.7741 56.5369 82.7741C56.8068 82.7741 57.0369 82.8651 57.2272 83.0469C57.4204 83.2259 57.517 83.4403 57.517 83.6903C57.517 83.9432 57.4204 84.1605 57.2272 84.3423C57.0369 84.5213 56.8068 84.6108 56.5369 84.6108ZM62.376 85.4545V86.8182H58.4343V85.4545H62.376ZM59.3292 83.8864H61.1445V89.9886C61.1445 90.1562 61.1701 90.2869 61.2212 90.3807C61.2723 90.4716 61.3434 90.5355 61.4343 90.5724C61.528 90.6094 61.636 90.6278 61.7581 90.6278C61.8434 90.6278 61.9286 90.6207 62.0138 90.6065C62.0991 90.5895 62.1644 90.5767 62.2098 90.5682L62.4954 91.919C62.4044 91.9474 62.2766 91.9801 62.1118 92.017C61.9471 92.0568 61.7468 92.081 61.511 92.0895C61.0735 92.1065 60.69 92.0483 60.3604 91.9148C60.0337 91.7812 59.7794 91.5739 59.5976 91.2926C59.4158 91.0114 59.3263 90.6562 59.3292 90.2273V83.8864ZM66.4456 92.1278C65.7752 92.1278 65.1985 91.9858 64.7155 91.7017C64.2354 91.4148 63.8661 91.017 63.6076 90.5085C63.3519 90 63.2241 89.4148 63.2241 88.7528C63.2241 88.0824 63.3533 87.4943 63.6118 86.9886C63.8732 86.4801 64.2439 86.0838 64.7241 85.7997C65.2042 85.5128 65.7752 85.3693 66.4371 85.3693C67.0081 85.3693 67.5081 85.473 67.9371 85.6804C68.3661 85.8878 68.7056 86.179 68.9556 86.554C69.2056 86.929 69.3434 87.3693 69.3689 87.875H67.6559C67.6076 87.5483 67.4797 87.2855 67.2723 87.0866C67.0678 86.8849 66.7993 86.7841 66.4669 86.7841C66.1857 86.7841 65.94 86.8608 65.7297 87.0142C65.5223 87.1648 65.3604 87.3849 65.2439 87.6747C65.1275 87.9645 65.0692 88.3153 65.0692 88.7273C65.0692 89.1449 65.126 89.5 65.2397 89.7926C65.3562 90.0852 65.5195 90.3082 65.7297 90.4616C65.94 90.6151 66.1857 90.6918 66.4669 90.6918C66.6743 90.6918 66.8604 90.6491 67.0252 90.5639C67.1928 90.4787 67.3306 90.3551 67.4385 90.1932C67.5493 90.0284 67.6218 89.831 67.6559 89.6009H69.3689C69.3405 90.1009 69.2042 90.5412 68.9598 90.9219C68.7184 91.2997 68.3846 91.5952 67.9584 91.8082C67.5323 92.0213 67.028 92.1278 66.4456 92.1278ZM72.3466 88.2159V92H70.5312V83.2727H72.2954V86.6094H72.3721C72.5199 86.223 72.7585 85.9205 73.088 85.7017C73.4176 85.4801 73.8309 85.3693 74.3281 85.3693C74.7826 85.3693 75.179 85.4688 75.517 85.6676C75.8579 85.8636 76.1221 86.1463 76.3096 86.5156C76.5 86.8821 76.5937 87.321 76.5909 87.8324V92H74.7755V88.1562C74.7784 87.7528 74.6761 87.4389 74.4687 87.2145C74.2642 86.9901 73.9772 86.8778 73.6079 86.8778C73.3608 86.8778 73.142 86.9304 72.9517 87.0355C72.7642 87.1406 72.6165 87.294 72.5085 87.4957C72.4034 87.6946 72.3494 87.9347 72.3466 88.2159ZM81.0025 92.1278C80.3292 92.1278 79.7496 91.9915 79.2638 91.7188C78.7809 91.4432 78.4087 91.054 78.1473 90.5511C77.886 90.0455 77.7553 89.4474 77.7553 88.7571C77.7553 88.0838 77.886 87.4929 78.1473 86.9844C78.4087 86.4759 78.7766 86.0795 79.251 85.7955C79.7283 85.5114 80.288 85.3693 80.93 85.3693C81.3618 85.3693 81.7638 85.4389 82.136 85.5781C82.511 85.7145 82.8377 85.9205 83.1161 86.196C83.3973 86.4716 83.6161 86.8182 83.7723 87.2358C83.9286 87.6506 84.0067 88.1364 84.0067 88.6932V89.1918H78.4797V88.0668H82.2979C82.2979 87.8054 82.2411 87.5739 82.1275 87.3722C82.0138 87.1705 81.8562 87.0128 81.6544 86.8991C81.4556 86.7827 81.2241 86.7244 80.9598 86.7244C80.6843 86.7244 80.44 86.7884 80.2269 86.9162C80.0167 87.0412 79.8519 87.2102 79.7326 87.4233C79.6133 87.6335 79.5522 87.8679 79.5493 88.1264V89.196C79.5493 89.5199 79.609 89.7997 79.7283 90.0355C79.8505 90.2713 80.0223 90.4531 80.2439 90.581C80.4655 90.7088 80.7283 90.7727 81.0323 90.7727C81.234 90.7727 81.4187 90.7443 81.5863 90.6875C81.7539 90.6307 81.8973 90.5455 82.0167 90.4318C82.136 90.3182 82.2269 90.179 82.2894 90.0142L83.9684 90.125C83.8831 90.5284 83.7084 90.8807 83.4442 91.1818C83.1829 91.4801 82.8448 91.7131 82.43 91.8807C82.0181 92.0455 81.5422 92.1278 81.0025 92.1278ZM85.1914 92V85.4545H86.9513V86.5966H87.0195C87.1388 86.1903 87.3391 85.8835 87.6204 85.6761C87.9016 85.4659 88.2255 85.3608 88.5919 85.3608C88.6829 85.3608 88.7809 85.3665 88.886 85.3778C88.9911 85.3892 89.0834 85.4048 89.163 85.4247V87.0355C89.0777 87.0099 88.9598 86.9872 88.8093 86.9673C88.6587 86.9474 88.5209 86.9375 88.3959 86.9375C88.1289 86.9375 87.8902 86.9957 87.68 87.1122C87.4726 87.2259 87.3079 87.3849 87.1857 87.5895C87.0664 87.794 87.0067 88.0298 87.0067 88.2969V92H85.1914Z" fill="black"/>
</svg>
